<?xml version="1.0" encoding="UTF-8" standalone="no"?>
<svg width="37px" height="37px" viewBox="0 0 37 37" version="1.1" xmlns="http://www.w3.org/2000/svg" xmlns:xlink="http://www.w3.org/1999/xlink">
    <!-- Generator: Sketch 42 (36781) - http://www.bohemiancoding.com/sketch -->
    <title>calender</title>
    <desc>Created with Sketch.</desc>
    <defs></defs>
    <g id="Page-1" stroke="none" stroke-width="1" fill="none" fill-rule="evenodd">
        <g id="Full-Bleed-Version---STAND-ALONE-STATE" transform="translate(-322.000000, -639.000000)">
            <g id="New-Nav-V1" transform="translate(289.000000, 626.000000)">
                <g id="calender" transform="translate(34.000000, 14.000000)">
                    <g id="Group-7">
                        <circle id="Oval-Copy-6" stroke="#00A6EF" fill="#FFFFFF" cx="17.5" cy="17.5" r="17.5"></circle>
                        <g id="Page-1" transform="translate(8.000000, 7.000000)" fill="#666666">
                            <path d="M16.8134921,19.201087 L2.18650794,19.201087 C1.39665079,19.201087 0.753968254,18.5525217 0.753968254,17.7554348 L0.753968254,2.99456522 C0.753968254,2.19747826 1.39665079,1.54891304 2.18650794,1.54891304 L16.8134921,1.54891304 C17.6033492,1.54891304 18.2460317,2.19747826 18.2460317,2.99456522 L18.2460317,17.7554348 C18.2460317,18.5525217 17.6033492,19.201087 16.8134921,19.201087 M16.8134921,0.788043478 L2.18650794,0.788043478 C0.980912698,0.788043478 0,1.77793478 0,2.99456522 L0,17.7554348 C0,18.9720652 0.980912698,19.9619565 2.18650794,19.9619565 L16.8134921,19.9619565 C18.0190873,19.9619565 19,18.9720652 19,17.7554348 L19,2.99456522 C19,1.77793478 18.0190873,0.788043478 16.8134921,0.788043478" id="Fill-1"></path>
                            <path d="M18.6230159,5.61956522 L0.376984127,5.61956522 C0.252126984,5.61956522 0.150793651,5.51730435 0.150793651,5.39130435 C0.150793651,5.26530435 0.252126984,5.16304348 0.376984127,5.16304348 L18.6230159,5.16304348 C18.747873,5.16304348 18.8492063,5.26530435 18.8492063,5.39130435 C18.8492063,5.51730435 18.747873,5.61956522 18.6230159,5.61956522" id="Fill-3"></path>
                            <path d="M4.0789381,14.5012261 C4.97389841,13.8690957 5.66966032,13.3322261 6.16501746,12.8909217 C6.66022381,12.4496174 7.01700159,12.0475739 7.23384286,11.6826609 C7.45053333,11.3174435 7.55895397,10.9409652 7.55895397,10.5518565 C7.55895397,10.1842043 7.4442,9.88533478 7.21363651,9.65631304 C6.98292222,9.42607391 6.66791429,9.31163913 6.26831111,9.31163913 C5.8411127,9.31163913 5.50318413,9.45407391 5.25105714,9.73894348 C5.0002873,10.0239652 4.8579381,10.4196174 4.82265238,10.9271174 L3.86224762,10.4792696 C3.9314619,9.81913913 4.18238254,9.29763913 4.61606508,8.91613913 C5.04959683,8.53448696 5.62170794,8.34244348 6.33013651,8.34244348 C6.81916032,8.34244348 7.24258889,8.43770435 7.60057302,8.6299 C7.95855714,8.82072609 8.23073968,9.07881304 8.41606508,9.40583478 C8.60259683,9.73270435 8.69458095,10.1002043 8.69458095,10.5098565 C8.69458095,11.1698348 8.45255714,11.798313 7.96730317,12.3960522 C7.48204921,12.9939435 6.67424762,13.6565087 5.54600952,14.3866391 L5.54600952,14.4070304 C5.89027143,14.3790304 6.26454127,14.3650304 6.67153333,14.3650304 L8.8194381,14.3650304 L8.8194381,15.3240304 L4.0789381,15.3240304 L4.0789381,14.5012261 Z" id="Fill-14"></path>
                            <path d="M10.6873492,12.7394935 L12.9383968,12.7394935 L12.9383968,10.3850587 L12.9800159,9.26962391 L12.9598095,9.26962391 C12.7946905,9.62449348 12.5742302,10.0061457 12.298127,10.416863 L10.6873492,12.7394935 Z M15.137873,13.6046022 L13.9820397,13.6046022 L13.9820397,15.3240152 L12.9383968,15.3240152 L12.9383968,13.6046022 L9.5832381,13.6046022 L9.5832381,12.9277326 L12.6295714,8.44666739 L13.9820397,8.44666739 L13.9820397,12.7394935 L15.137873,12.7394935 L15.137873,13.6046022 Z" id="Fill-16"></path>
                        </g>
                    </g>
                </g>
            </g>
        </g>
    </g>
</svg>