<?xml version="1.0" encoding="UTF-8" standalone="no"?>
<svg width="41px" height="41px" viewBox="0 0 41 41" version="1.1" xmlns="http://www.w3.org/2000/svg" xmlns:xlink="http://www.w3.org/1999/xlink">
    <!-- Generator: Sketch 42 (36781) - http://www.bohemiancoding.com/sketch -->
    <title>calender  / Hover </title>
    <desc>Created with Sketch.</desc>
    <defs></defs>
    <g id="Page-1" stroke="none" stroke-width="1" fill="none" fill-rule="evenodd">
        <g id="Full-Bleed-Version---HOVER-STATE" transform="translate(-320.000000, -637.000000)">
            <g id="New-Nav-V1" transform="translate(289.000000, 626.000000)">
                <g id="calender-/-hover" transform="translate(32.000000, 12.000000)">
                    <circle id="Oval-Copy-6" stroke="#00A6EF" fill="#FFFFFF" cx="19.5" cy="19.5" r="19.5"></circle>
                    <g id="Page-1" transform="translate(8.914286, 7.800000)" fill="#00A6EF">
                        <path d="M18.735034,21.3954969 L2.43639456,21.3954969 C1.55626803,21.3954969 0.840136054,20.6728099 0.840136054,19.7846273 L0.840136054,3.33680124 C0.840136054,2.44861863 1.55626803,1.72593168 2.43639456,1.72593168 L18.735034,1.72593168 C19.6151605,1.72593168 20.3312925,2.44861863 20.3312925,3.33680124 L20.3312925,19.7846273 C20.3312925,20.6728099 19.6151605,21.3954969 18.735034,21.3954969 M18.735034,0.87810559 L2.43639456,0.87810559 C1.09301701,0.87810559 0,1.98112733 0,3.33680124 L0,19.7846273 C0,21.1403012 1.09301701,22.243323 2.43639456,22.243323 L18.735034,22.243323 C20.0784116,22.243323 21.1714286,21.1403012 21.1714286,19.7846273 L21.1714286,3.33680124 C21.1714286,1.98112733 20.0784116,0.87810559 18.735034,0.87810559" id="Fill-1"></path>
                        <path d="M20.7513605,6.26180124 L0.420068027,6.26180124 C0.280941497,6.26180124 0.168027211,6.14785342 0.168027211,6.00745342 C0.168027211,5.86705342 0.280941497,5.75310559 0.420068027,5.75310559 L20.7513605,5.75310559 C20.8904871,5.75310559 21.0034014,5.86705342 21.0034014,6.00745342 C21.0034014,6.14785342 20.8904871,6.26180124 20.7513605,6.26180124" id="Fill-3"></path>
                        <path d="M4.54510245,16.1585091 C5.54234395,15.4541352 6.3176215,14.8559091 6.86959088,14.3641699 C7.42139224,13.8724308 7.81894463,13.4244395 8.06056776,13.0178221 C8.30202286,12.6108656 8.42283442,12.1913612 8.42283442,11.757783 C8.42283442,11.3481134 8.29496571,11.0150873 8.03805211,10.7598917 C7.78097048,10.5033395 7.42996163,10.3758265 6.98468952,10.3758265 C6.50866844,10.3758265 6.13211946,10.5345395 5.85117796,10.8519656 C5.57174871,11.1695612 5.41313102,11.6104308 5.37381265,12.1759308 L4.30364735,11.6769004 C4.38077184,10.9413265 4.66036912,10.3602265 5.14361537,9.93512646 C5.62669361,9.50985689 6.26418884,9.29586559 7.05358068,9.29586559 C7.59849293,9.29586559 8.07031333,9.40201342 8.46920993,9.61617429 C8.86810653,9.82880907 9.17139565,10.1163917 9.37790109,10.4807873 C9.58575075,10.8450134 9.68824735,11.2545134 9.68824735,11.710983 C9.68824735,12.4463873 9.41856367,13.1466917 8.87785211,13.8127439 C8.33714054,14.4789656 7.43701878,15.2172525 6.17983918,16.0308265 L6.17983918,16.0535482 C6.56344531,16.0223482 6.98048884,16.0067482 7.43399429,16.0067482 L9.82737388,16.0067482 L9.82737388,17.0753482 L4.54510245,17.0753482 L4.54510245,16.1585091 Z" id="Fill-14"></path>
                        <path d="M11.9087605,14.1954356 L14.4170707,14.1954356 L14.4170707,11.5719225 L14.4634463,10.3290095 L14.4409306,10.3290095 C14.2569408,10.7244356 14.011285,11.1497052 13.7036272,11.6073617 L11.9087605,14.1954356 Z M16.8679156,15.1594139 L15.5799871,15.1594139 L15.5799871,17.0753312 L14.4170707,17.0753312 L14.4170707,15.1594139 L10.6784653,15.1594139 L10.6784653,14.4051878 L14.072951,9.41200081 L15.5799871,9.41200081 L15.5799871,14.1954356 L16.8679156,14.1954356 L16.8679156,15.1594139 Z" id="Fill-16"></path>
                    </g>
                </g>
            </g>
        </g>
    </g>
</svg>