<?xml version="1.0" encoding="UTF-8" standalone="no"?>
<svg width="37px" height="37px" viewBox="0 0 37 37" version="1.1" xmlns="http://www.w3.org/2000/svg" xmlns:xlink="http://www.w3.org/1999/xlink">
    <!-- Generator: Sketch 42 (36781) - http://www.bohemiancoding.com/sketch -->
    <title>call center</title>
    <desc>Created with Sketch.</desc>
    <defs>
        <polygon id="path-1" points="11.9311034 22.9999468 11.9311034 0 5.17241378e-05 0 5.17241378e-05 22.9999468"></polygon>
    </defs>
    <g id="Page-1" stroke="none" stroke-width="1" fill="none" fill-rule="evenodd">
        <g id="Full-Bleed-Version---STAND-ALONE-STATE" transform="translate(-929.000000, -639.000000)">
            <g id="New-Nav-V1" transform="translate(289.000000, 626.000000)">
                <g id="call-center" transform="translate(641.000000, 14.000000)">
                    <g id="Group-23">
                        <circle id="Oval" stroke="#17C235" fill="#FFFFFF" cx="17.5" cy="17.5" r="17.5"></circle>
                        <g id="Group-16" transform="translate(12.000000, 6.000000)">
                            <g id="Page-1">
                                <path d="M5.9655,20.1412704 C5.56205172,20.1412704 5.2335,20.4792426 5.2335,20.8947333 C5.2335,21.3102241 5.56205172,21.6481963 5.9655,21.6481963 C6.36915517,21.6481963 6.6975,21.3102241 6.6975,20.8947333 C6.6975,20.4792426 6.36915517,20.1412704 5.9655,20.1412704" id="Fill-1" fill="#666666"></path>
                                <g id="Group-5">
                                    <mask id="mask-2" fill="white">
                                        <use xlink:href="#path-1"></use>
                                    </mask>
                                    <g id="Clip-4"></g>
                                    <path d="M5.9655,22.0016829 C5.81994828,22.0016829 5.68112069,21.9714421 5.5542931,21.9172431 C5.44339655,21.8697523 5.34243103,21.8030949 5.25367241,21.722169 C5.03136207,21.5193218 4.89015517,21.2240486 4.89015517,20.8947014 C4.89015517,20.284456 5.37263793,19.7878264 5.9655,19.7878264 C6.55846552,19.7878264 7.04094828,20.284456 7.04094828,20.8947014 C7.04094828,21.2240486 6.89974138,21.5193218 6.67743103,21.722169 C6.58877586,21.8030949 6.48781034,21.8697523 6.37691379,21.9172431 C6.24998276,21.9714421 6.11115517,22.0016829 5.9655,22.0016829 L5.9655,22.0016829 Z M1.24143103,1.91661343 C1.24143103,1.56437269 1.51981034,1.27772454 1.86212069,1.27772454 L10.0690862,1.27772454 C10.4113966,1.27772454 10.6897759,1.56437269 10.6897759,1.91661343 L10.6897759,18.9359745 L1.24143103,18.9359745 L1.24143103,1.91661343 Z M10.0690862,-5.32407403e-05 L1.86212069,-5.32407403e-05 C0.835293103,-5.32407403e-05 5.17241378e-05,0.859784722 5.17241378e-05,1.91661343 L5.17241378e-05,21.0832801 C5.17241378e-05,22.1402153 0.835293103,22.9999468 1.86212069,22.9999468 L10.0690862,22.9999468 C11.0957069,22.9999468 11.9311552,22.1402153 11.9311552,21.0832801 L11.9311552,1.91661343 C11.9311552,0.859784722 11.0957069,-5.32407403e-05 10.0690862,-5.32407403e-05 L10.0690862,-5.32407403e-05 Z" id="Fill-3" fill="#666666" mask="url(#mask-2)"></path>
                                </g>
                            </g>
                        </g>
                    </g>
                </g>
            </g>
        </g>
    </g>
</svg>