<?xml version="1.0" encoding="UTF-8" standalone="no"?>
<svg width="41px" height="41px" viewBox="0 0 41 41" version="1.1" xmlns="http://www.w3.org/2000/svg" xmlns:xlink="http://www.w3.org/1999/xlink">
    <!-- Generator: Sketch 42 (36781) - http://www.bohemiancoding.com/sketch -->
    <title>folders / Hover</title>
    <desc>Created with Sketch.</desc>
    <defs>
        <polygon id="path-1" points="2.53846141e-05 17.9554286 21.9661792 17.9554286 21.9661792 0 2.53846141e-05 0 2.53846141e-05 17.9554286"></polygon>
    </defs>
    <g id="Page-1" stroke="none" stroke-width="1" fill="none" fill-rule="evenodd">
        <g id="Full-Bleed-Version---HOVER-STATE" transform="translate(-522.000000, -637.000000)">
            <g id="New-Nav-V1" transform="translate(289.000000, 626.000000)">
                <g id="folders-/-Hover" transform="translate(234.000000, 12.000000)">
                    <circle id="Oval-Copy-4" stroke="#000F75" stroke-width="1.1" fill="#FFFFFF" cx="19.5" cy="19.5" r="19.5"></circle>
                    <g id="Page-1" stroke-width="1" transform="translate(9.000000, 10.000000)">
                        <mask id="mask-2" fill="white">
                            <use xlink:href="#path-1"></use>
                        </mask>
                        <g id="Clip-2"></g>
                        <path d="M20.4969177,15.7795886 C20.4969177,16.1593029 20.1919638,16.4681314 19.8172023,16.4681314 L2.14790231,16.4681314 C1.77314077,16.4681314 1.46810231,16.1593029 1.46810231,15.7795886 L1.46810231,6.85741714 L8.15593308,6.85741714 C8.74164077,6.85741714 9.46747154,6.55278857 9.88174846,6.13313143 L10.2954331,5.71398857 C10.4311562,5.57667429 10.7906869,5.42581714 10.9825946,5.42581714 L20.4969177,5.42581714 L20.4969177,15.7795886 Z M2.46233308,1.20567429 L8.19502538,1.20567429 C8.75348692,1.20567429 9.21041,1.66844571 9.21041,2.23424571 C9.21041,2.79996 8.75348692,3.26281714 8.19502538,3.26281714 L2.46233308,3.26281714 C1.90395615,3.26281714 1.44694846,2.79996 1.44694846,2.23424571 C1.44694846,1.66844571 1.90395615,1.20567429 2.46233308,1.20567429 L2.46233308,1.20567429 Z M19.8172023,2.14853143 L10.8050715,2.14853143 C10.6967638,2.14853143 10.3801331,1.93484571 10.2643792,1.58307429 C9.96780231,0.680588571 9.13679462,-6.8571429e-05 8.33125615,-6.8571429e-05 L2.14790231,-6.8571429e-05 C0.963540769,-6.8571429e-05 2.53846141e-05,0.97596 2.53846141e-05,2.17570286 L2.53846141e-05,15.7795886 C2.53846141e-05,16.9793314 0.963540769,17.9554457 2.14790231,17.9554457 L19.8182177,17.9554457 C21.0026638,17.9554457 21.9661792,16.9793314 21.9661792,15.7795886 L21.9661792,4.32396 C21.96491,3.12438857 21.0008869,2.14853143 19.8172023,2.14853143 L19.8172023,2.14853143 Z" id="Fill-1" fill="#0B1A7A" mask="url(#mask-2)"></path>
                    </g>
                </g>
            </g>
        </g>
    </g>
</svg>