<?xml version="1.0" encoding="UTF-8" standalone="no"?>
<svg width="37px" height="37px" viewBox="0 0 37 37" version="1.1" xmlns="http://www.w3.org/2000/svg" xmlns:xlink="http://www.w3.org/1999/xlink">
    <!-- Generator: Sketch 42 (36781) - http://www.bohemiancoding.com/sketch -->
    <title>Folder / Active</title>
    <desc>Created with Sketch.</desc>
    <defs>
        <polygon id="path-1" points="2.30769219e-05 15.960381 19.9692538 15.960381 19.9692538 0 2.30769219e-05 0 2.30769219e-05 15.960381"></polygon>
    </defs>
    <g id="Page-1" stroke="none" stroke-width="1" fill="none" fill-rule="evenodd">
        <g id="Full-Bleed-Version---CLICKED-STATE" transform="translate(-524.000000, -639.000000)">
            <g id="New-Nav-V1" transform="translate(289.000000, 626.000000)">
                <g id="Folder-/-Active" transform="translate(236.000000, 14.000000)">
                    <circle id="Oval-Copy-4" stroke="#000F75" fill="#000F75" cx="17.5" cy="17.5" r="17.5"></circle>
                    <g id="Page-1" transform="translate(8.000000, 9.000000)">
                        <mask id="mask-2" fill="white">
                            <use xlink:href="#path-1"></use>
                        </mask>
                        <g id="Clip-2"></g>
                        <path d="M18.6335615,14.026301 C18.6335615,14.3638248 18.3563308,14.638339 18.0156385,14.638339 L1.95263846,14.638339 C1.61194615,14.638339 1.33463846,14.3638248 1.33463846,14.026301 L1.33463846,6.0954819 L7.41448462,6.0954819 C7.94694615,6.0954819 8.60679231,5.82470095 8.98340769,5.45167238 L9.35948462,5.07910095 C9.48286923,4.95704381 9.80971538,4.82294857 9.98417692,4.82294857 L18.6335615,4.82294857 L18.6335615,14.026301 Z M2.23848462,1.07171048 L7.45002308,1.07171048 C7.95771538,1.07171048 8.3731,1.48306286 8.3731,1.98599619 C8.3731,2.48885333 7.95771538,2.9002819 7.45002308,2.9002819 L2.23848462,2.9002819 C1.73086923,2.9002819 1.31540769,2.48885333 1.31540769,1.98599619 C1.31540769,1.48306286 1.73086923,1.07171048 2.23848462,1.07171048 L2.23848462,1.07171048 Z M18.0156385,1.90980571 L9.82279231,1.90980571 C9.72433077,1.90980571 9.43648462,1.71986286 9.33125385,1.40717714 C9.06163846,0.604967619 8.30617692,-6.09523813e-05 7.57386923,-6.09523813e-05 L1.95263846,-6.09523813e-05 C0.875946154,-6.09523813e-05 2.30769219e-05,0.86752 2.30769219e-05,1.9339581 L2.30769219e-05,14.026301 C2.30769219e-05,15.092739 0.875946154,15.9603962 1.95263846,15.9603962 L18.0165615,15.9603962 C19.0933308,15.9603962 19.9692538,15.092739 19.9692538,14.026301 L19.9692538,3.84352 C19.9681,2.77723429 19.0917154,1.90980571 18.0156385,1.90980571 L18.0156385,1.90980571 Z" id="Fill-1" fill="#FFFFFF" mask="url(#mask-2)"></path>
                    </g>
                </g>
            </g>
        </g>
    </g>
</svg>