<?xml version="1.0" encoding="UTF-8" standalone="no"?>
<svg width="37px" height="37px" viewBox="0 0 37 37" version="1.1" xmlns="http://www.w3.org/2000/svg" xmlns:xlink="http://www.w3.org/1999/xlink">
    <!-- Generator: Sketch 42 (36781) - http://www.bohemiancoding.com/sketch -->
    <title>groups / Active</title>
    <desc>Created with Sketch.</desc>
    <defs>
        <polygon id="path-1" points="0 5.48387096e-05 0 16.9177968 25.9598936 16.9177968 25.9598936 5.48387096e-05 4.18966965e-05 5.48387096e-05 25.959907 -5.48387097e-05 25.959907 16.9176871 4.18966965e-05 16.9176871 4.18966965e-05 5.48387096e-05"></polygon>
    </defs>
    <g id="Page-1" stroke="none" stroke-width="1" fill="none" fill-rule="evenodd">
        <g id="Full-Bleed-Version---CLICKED-STATE" transform="translate(-626.000000, -639.000000)">
            <g id="New-Nav-V1" transform="translate(289.000000, 626.000000)">
                <g id="groups-/-Active" transform="translate(338.000000, 14.000000)">
                    <circle id="Oval-Copy-3" stroke="#ED1E7A" fill="#EC2C81" cx="17.5" cy="17.5" r="17.5"></circle>
                    <g id="Page-1" transform="translate(5.000000, 9.000000)">
                        <path d="M24.7973894,10.9013323 C24.7216021,11.4552032 24.2364532,11.8725258 23.6691553,11.8725258 L19.6817511,11.8725258 C19.5982191,9.66663871 18.8301128,8.54847742 17.8623043,7.87067097 L17.9297936,7.7673 C18.2470489,7.28142903 18.6790915,7.09826774 19.0599638,6.93704194 L19.1354745,6.90523548 C19.670134,6.68259032 20.5649213,6.31050968 20.0750702,5.09583226 C19.645517,4.01797742 19.5913043,3.14604194 19.921283,2.63988065 C20.2548574,2.11644516 20.9767723,2.00155806 21.2268149,2.00155806 C21.4768574,2.00155806 22.1987723,2.11644516 22.5329,2.64125161 C22.8650915,3.14960645 22.8133681,3.97520323 22.3793894,5.0941871 C22.2103894,5.51288065 22.1901979,5.86905806 22.3185383,6.15504194 C22.5259851,6.61733226 23.0819426,6.82050968 23.349134,6.91839677 L23.3856447,6.93402581 C24.1639851,7.27923548 25.2297085,7.75221935 24.7973894,10.9013323 L24.7973894,10.9013323 Z M9.19877234,15.7934935 C8.39885745,15.7934935 7.70792128,15.2023323 7.59119787,14.4181387 C6.89860213,9.76205806 8.36815532,8.83665484 9.60094255,8.3156871 C9.6305383,8.30417097 9.66234681,8.29402581 9.6886234,8.2816871 C9.72928298,8.26304194 9.76800638,8.24521935 9.79400638,8.23754194 L9.84158085,8.21670323 C9.84821915,8.21396129 9.85541064,8.21094516 9.86204894,8.20847742 C10.6160489,7.90357419 11.7561766,7.44347742 11.1133681,5.86412258 C10.4509213,4.17892903 10.389517,2.88309032 10.9349638,2.11452581 C11.5307511,1.20173548 12.7707298,1.10713871 12.9798362,1.09781613 C13.1892191,1.10713871 14.4291979,1.20173548 15.0249851,2.11452581 C15.5704319,2.88309032 15.5090277,4.17892903 14.8463043,5.86412258 C14.2037723,7.44347742 15.3436234,7.90357419 16.0979,8.20847742 C16.1045383,8.21094516 16.1117298,8.21396129 16.1183681,8.21670323 L16.1659426,8.23754194 C16.1919426,8.24521935 16.2303894,8.26304194 16.2713255,8.2816871 C16.2976021,8.29402581 16.3294106,8.30417097 16.3590064,8.3156871 C17.5917936,8.83665484 19.0613468,9.76205806 18.3687511,14.4181387 C18.2520277,15.2023323 17.5610915,15.7934935 16.7609,15.7934935 L9.19877234,15.7934935 Z M1.16255957,10.9013323 C0.72996383,7.75221935 1.79596383,7.27923548 2.57430426,6.93402581 L2.61081489,6.91839677 C2.87800638,6.82050968 3.43396383,6.61733226 3.64141064,6.15504194 C3.76975106,5.86905806 3.74928298,5.51288065 3.58055957,5.0941871 C3.14658085,3.97520323 3.09485745,3.14960645 3.42677234,2.64125161 C3.7609,2.11644516 4.48309149,2.00155806 4.73313404,2.00155806 C4.9829,2.00155806 5.70509149,2.11644516 6.03866596,2.63988065 C6.36864468,3.14604194 6.31443191,4.01797742 5.88487872,5.09583226 C5.39502766,6.31050968 6.28981489,6.68259032 6.82447447,6.90523548 L6.89998511,6.93704194 C7.28085745,7.09826774 7.7126234,7.28142903 8.03015532,7.7673 L8.09764468,7.87067097 C7.12983617,8.54847742 6.36200638,9.66663871 6.27819787,11.8725258 L2.29079362,11.8725258 C1.72349574,11.8725258 1.23834681,11.4552032 1.16255957,10.9013323 L1.16255957,10.9013323 Z M23.7454957,5.91183226 L23.7371979,5.90799355 C23.6946021,5.88688065 23.6520064,5.87015484 23.6113468,5.85452581 C23.5463468,5.82875161 23.4785809,5.80215484 23.418283,5.76239677 L23.3566021,5.72154194 L23.3566021,5.64833226 C23.3566021,5.60967097 23.3690489,5.57978387 23.3773468,5.56004194 L23.3773468,5.53371935 L23.3942191,5.48792903 C23.9808787,4.03388065 23.9944319,2.86773548 23.4346021,2.02184839 C22.6922191,0.917670968 21.2140915,0.904783871 21.1991553,0.904783871 C21.1844957,0.904783871 19.7337511,0.917670968 18.9908149,2.02267097 C18.4315383,2.86773548 18.4450915,4.03388065 19.0317511,5.48792903 C19.0660489,5.55455806 19.0693681,5.6041871 19.0693681,5.64833226 L19.0693681,5.72154194 L19.0076872,5.76239677 C18.9531979,5.79859032 18.8893043,5.82244516 18.8276234,5.84520323 C18.7806021,5.86275161 18.7319213,5.88057419 18.7037085,5.89949355 C18.0271553,6.18136452 17.3658149,6.52739677 16.9481553,7.22631613 L16.8911766,7.3211871 L16.785517,7.28636452 C16.7697511,7.28142903 16.7578574,7.27594516 16.7434745,7.27100968 C16.6898149,7.24825161 16.6364319,7.22604194 16.5830489,7.20438065 C16.5553894,7.19505806 16.5086447,7.17833226 16.4549851,7.15776774 L16.3858362,7.12815484 C16.2832191,7.08455806 16.1988574,7.04781613 16.1272191,7.0149129 C16.0019213,6.95212258 15.8896234,6.88357419 15.8478574,6.82105806 L15.8284957,6.77828387 C15.8196447,6.7429129 15.8000064,6.60334839 15.917283,6.28336452 C16.7310277,4.23952581 16.7542617,2.63110645 15.9864319,1.50252581 C15.7444106,1.14607419 15.4440277,0.875170968 15.1278787,0.667606452 C14.4073468,0.182832258 13.6027298,0.0498483871 13.2052617,0.0139290323 C13.2024957,0.0136548387 13.2000064,0.0133806452 13.197517,0.0131064516 C13.1839638,0.0120096774 13.1717936,0.0109129032 13.1593468,0.00981612903 C13.0653043,0.00186451613 13.0063894,-5.48387097e-05 13.0030702,-5.48387097e-05 C13.0000277,-5.48387097e-05 12.9889638,0.000219354839 12.9798362,0.000219354839 C12.9709851,0.000219354839 12.9599213,-5.48387097e-05 12.9566021,-5.48387097e-05 C12.9535596,-5.48387097e-05 12.8946447,0.00186451613 12.8006021,0.00981612903 C12.7881553,0.0109129032 12.7759851,0.0120096774 12.7621553,0.0131064516 C12.759666,0.0133806452 12.7574532,0.0136548387 12.7546872,0.0139290323 C12.3569426,0.0498483871 11.5526021,0.182832258 10.8320702,0.667606452 C10.5159213,0.875170968 10.2155383,1.14607419 9.97351702,1.50252581 C9.20568723,2.63110645 9.22892128,4.23952581 10.042666,6.28336452 C10.1599426,6.60334839 10.1403043,6.7429129 10.1314532,6.77828387 L10.1120915,6.82105806 C10.0703255,6.88357419 9.95802766,6.95212258 9.83245319,7.0149129 C9.76109149,7.04781613 9.67700638,7.08455806 9.57411277,7.12815484 L9.50496383,7.15776774 C9.45102766,7.17833226 9.40455957,7.19505806 9.3769,7.20438065 C9.32351702,7.22604194 9.26985745,7.24825161 9.21647447,7.27100968 C9.20209149,7.27594516 9.19019787,7.28142903 9.17443191,7.28636452 L9.06877234,7.3211871 L9.01179362,7.22631613 C8.59413404,6.52739677 7.93251702,6.18136452 7.25624043,5.89949355 C7.22775106,5.88057419 7.17934681,5.86275161 7.13232553,5.84520323 C7.07064468,5.82244516 7.00675106,5.79859032 6.95198511,5.76239677 L6.89058085,5.72154194 L6.89058085,5.64833226 C6.89058085,5.6041871 6.8936234,5.55455806 6.92819787,5.48792903 C7.51485745,4.03388065 7.52813404,2.86773548 6.96913404,2.02267097 C6.22592128,0.917670968 4.7751766,0.904783871 4.76079362,0.904783871 C4.74585745,0.904783871 3.26772979,0.917670968 2.52534681,2.02184839 C1.96551702,2.86773548 1.97907021,4.03388065 2.56572979,5.48792903 L2.58260213,5.53371935 L2.58260213,5.56004194 C2.5909,5.57978387 2.60334681,5.60967097 2.60334681,5.64833226 L2.60334681,5.72154194 L2.54166596,5.76239677 C2.48109149,5.80215484 2.41360213,5.82875161 2.34860213,5.85452581 C2.30766596,5.87015484 2.26534681,5.88688065 2.22275106,5.90799355 L2.21445319,5.91183226 C0.736602128,6.52438065 -0.742908511,7.59126774 0.415474468,12.5308645 C0.466644681,12.7850419 0.693453191,12.9693 0.95483617,12.9693 L6.29064468,12.9693 C6.34375106,13.9514613 6.50749574,15.1066387 6.81285745,16.4770581 C6.86485745,16.7337032 7.09138936,16.9176871 7.35277234,16.9176871 L7.4269,16.9176871 L18.5330489,16.9176871 L18.6071766,16.9176871 C18.868283,16.9176871 19.0950915,16.7337032 19.1468149,16.4770581 C19.4524532,15.1066387 19.6161979,13.9514613 19.6693043,12.9693 L25.0051128,12.9693 C25.2662191,12.9693 25.4933043,12.7850419 25.5444745,12.5308645 C26.7028574,7.59126774 25.2233468,6.52438065 23.7454957,5.91183226 L23.7454957,5.91183226 Z" id="Fill-1" fill="#FFFFFF"></path>
                        <mask id="mask-2" fill="white">
                            <use xlink:href="#path-1"></use>
                        </mask>
                        <g id="Clip-2"></g>
                    </g>
                </g>
            </g>
        </g>
    </g>
</svg>