<?xml version="1.0" encoding="UTF-8" standalone="no"?>
<svg width="41px" height="41px" viewBox="0 0 41 41" version="1.1" xmlns="http://www.w3.org/2000/svg" xmlns:xlink="http://www.w3.org/1999/xlink">
    <!-- Generator: Sketch 42 (36781) - http://www.bohemiancoding.com/sketch -->
    <title>groups / Hover</title>
    <desc>Created with Sketch.</desc>
    <defs>
        <polygon id="path-1" points="0 6.12903225e-05 0 18.9081258 28.955266 18.9081258 28.955266 6.12903225e-05 4.67309307e-05 6.12903225e-05 28.9552809 -6.12903226e-05 28.9552809 18.9080032 4.67309307e-05 18.9080032 4.67309307e-05 6.12903225e-05"></polygon>
    </defs>
    <g id="Page-1" stroke="none" stroke-width="1" fill="none" fill-rule="evenodd">
        <g id="Full-Bleed-Version---HOVER-STATE" transform="translate(-624.000000, -637.000000)">
            <g id="New-Nav-V1" transform="translate(289.000000, 626.000000)">
                <g id="groups-/-Hover" transform="translate(336.000000, 12.000000)">
                    <circle id="Oval-Copy-3" stroke="#ED1E7A" stroke-width="1.1" fill="#FFFFFF" cx="19.5" cy="19.5" r="19.5"></circle>
                    <g id="Page-1" stroke-width="1" transform="translate(6.000000, 10.000000)">
                        <path d="M27.6586266,12.1838419 C27.5740947,12.8028742 27.032967,13.2692935 26.4002117,13.2692935 L21.9527223,13.2692935 C21.8595521,10.8038903 21.0028181,9.55418065 19.9233394,8.79663226 L19.998616,8.6811 C20.3524777,8.13806774 20.8343713,7.93335806 21.2591904,7.75316452 L21.3434138,7.71761613 C21.9397649,7.46877742 22.9377968,7.05292258 22.3914245,5.69534194 C21.9123074,4.49068065 21.8518394,3.51616452 22.2198926,2.95045484 C22.5919564,2.36543871 23.3971691,2.23703548 23.6760628,2.23703548 C23.9549564,2.23703548 24.7601691,2.36543871 25.13285,2.9519871 C25.5033713,3.52014839 25.4456798,4.44287419 24.9616266,5.69350323 C24.7731266,6.16145484 24.7506053,6.55953548 24.8937543,6.87916452 C25.1251372,7.39584194 25.7452436,7.62292258 26.0432649,7.73232581 L26.0839883,7.74979355 C26.9521372,8.13561613 28.1408287,8.66424516 27.6586266,12.1838419 L27.6586266,12.1838419 Z M10.2601691,17.6515516 C9.36795638,17.6515516 8.59729681,16.9908419 8.46710532,16.1143903 C7.69459468,10.9105355 9.3337117,9.87626129 10.7087436,9.29400323 C10.7417543,9.28113226 10.777233,9.26979355 10.8065415,9.25600323 C10.8518926,9.23516452 10.895084,9.21524516 10.924084,9.20666452 L10.9771479,9.18337419 C10.9845521,9.18030968 10.9925734,9.17693871 10.9999777,9.17418065 C11.8409777,8.83340645 13.1126585,8.31918065 12.3956798,6.55401935 C11.6567968,4.67056774 11.5883074,3.22227742 12.1966904,2.36329355 C12.8612223,1.34311613 14.2442755,1.23739032 14.4775096,1.22697097 C14.7110521,1.23739032 16.0941053,1.34311613 16.7586372,2.36329355 C17.3670202,3.22227742 17.2985309,4.67056774 16.5593394,6.55401935 C15.8426691,8.31918065 17.1140415,8.83340645 17.95535,9.17418065 C17.9627543,9.17693871 17.9707755,9.18030968 17.9781798,9.18337419 L18.0312436,9.20666452 C18.0602436,9.21524516 18.1031266,9.23516452 18.1487862,9.25600323 C18.1780947,9.26979355 18.2135734,9.28113226 18.246584,9.29400323 C19.621616,9.87626129 21.260733,10.9105355 20.4882223,16.1143903 C20.3580309,16.9908419 19.5873713,17.6515516 18.69485,17.6515516 L10.2601691,17.6515516 Z M1.29670106,12.1838419 C0.814190426,8.66424516 2.00319043,8.13561613 2.87133936,7.74979355 L2.91206277,7.73232581 C3.21008404,7.62292258 3.83019043,7.39584194 4.0615734,6.87916452 C4.20472234,6.55953548 4.18189255,6.16145484 3.99370106,5.69350323 C3.50964787,4.44287419 3.45195638,3.52014839 3.82216915,2.9519871 C4.19485,2.36543871 5.00037128,2.23703548 5.27926489,2.23703548 C5.55785,2.23703548 6.36337128,2.36543871 6.73543511,2.95045484 C7.1034883,3.51616452 7.04302021,4.49068065 6.56390319,5.69534194 C6.01753085,7.05292258 7.01556277,7.46877742 7.61191383,7.71761613 L7.69613723,7.75316452 C8.12095638,7.93335806 8.60254149,8.13806774 8.9567117,8.6811 L9.0319883,8.79663226 C7.95250957,9.55418065 7.09608404,10.8038903 7.00260532,13.2692935 L2.55511596,13.2692935 C1.92236064,13.2692935 1.38123298,12.8028742 1.29670106,12.1838419 L1.29670106,12.1838419 Z M26.4853606,6.60734194 L26.4761053,6.60305161 C26.4285947,6.57945484 26.381084,6.56076129 26.335733,6.54329355 C26.263233,6.5144871 26.1876479,6.48476129 26.1203926,6.44032581 L26.0515947,6.39466452 L26.0515947,6.31284194 C26.0515947,6.26963226 26.0654777,6.23622903 26.074733,6.21416452 L26.074733,6.18474516 L26.0935521,6.13356774 C26.7479032,4.50845484 26.7630202,3.20511613 26.1385947,2.2597129 C25.3105521,1.02563226 23.6618713,1.01122903 23.6452117,1.01122903 C23.6288606,1.01122903 22.0107223,1.02563226 21.1820628,2.26063226 C20.5582543,3.20511613 20.5733713,4.50845484 21.2277223,6.13356774 C21.2659777,6.20803548 21.2696798,6.26350323 21.2696798,6.31284194 L21.2696798,6.39466452 L21.2008819,6.44032581 C21.1401053,6.48077742 21.0688394,6.50743871 21.0000415,6.53287419 C20.9475947,6.5524871 20.8932968,6.57240645 20.8618287,6.59355161 C20.1072117,6.90858387 19.3695628,7.29532581 18.9037117,8.07647097 L18.8401585,8.18250323 L18.7223074,8.14358387 C18.7047223,8.13806774 18.6914564,8.13193871 18.6754138,8.12642258 C18.6155628,8.1009871 18.5560202,8.07616452 18.4964777,8.05195484 C18.4656266,8.04153548 18.4134883,8.02284194 18.3536372,7.99985806 L18.2765096,7.96676129 C18.1620521,7.91803548 18.0679564,7.87697097 17.9880521,7.84019677 C17.8482968,7.77001935 17.7230415,7.69340645 17.6764564,7.62353548 L17.6548606,7.57572903 C17.6449883,7.53619677 17.623084,7.3802129 17.7538926,7.02258387 C18.6615309,4.73829355 18.6874457,2.94064839 17.8310202,1.67929355 C17.5610734,1.28090645 17.2260309,0.978132258 16.8734032,0.746148387 C16.069733,0.204341935 15.1722755,0.0557129032 14.7289457,0.0155677419 C14.7258606,0.0152612903 14.723084,0.0149548387 14.7203074,0.0146483871 C14.7051904,0.0134225806 14.691616,0.0121967742 14.677733,0.0109709677 C14.5728394,0.00208387097 14.5071266,-6.12903226e-05 14.5034245,-6.12903226e-05 C14.5000309,-6.12903226e-05 14.4876904,0.00024516129 14.4775096,0.00024516129 C14.4676372,0.00024516129 14.4552968,-6.12903226e-05 14.4515947,-6.12903226e-05 C14.4482011,-6.12903226e-05 14.3824883,0.00208387097 14.2775947,0.0109709677 C14.2637117,0.0121967742 14.2501372,0.0134225806 14.2347117,0.0146483871 C14.2319351,0.0149548387 14.229467,0.0152612903 14.2263819,0.0155677419 C13.7827436,0.0557129032 12.8855947,0.204341935 12.0819245,0.746148387 C11.7292968,0.978132258 11.3942543,1.28090645 11.1243074,1.67929355 C10.2678819,2.94064839 10.2937968,4.73829355 11.2014351,7.02258387 C11.3322436,7.3802129 11.3103394,7.53619677 11.300467,7.57572903 L11.2788713,7.62353548 C11.2322862,7.69340645 11.1070309,7.77001935 10.966967,7.84019677 C10.8873713,7.87697097 10.793584,7.91803548 10.6788181,7.96676129 L10.6016904,7.99985806 C10.5415309,8.02284194 10.4897011,8.04153548 10.45885,8.05195484 C10.3993074,8.07616452 10.3394564,8.1009871 10.2799138,8.12642258 C10.2638713,8.13193871 10.2506053,8.13806774 10.2330202,8.14358387 L10.1151691,8.18250323 L10.051616,8.07647097 C9.58576489,7.29532581 8.84780745,6.90858387 8.09349894,6.59355161 C8.06172234,6.57240645 8.00773298,6.5524871 7.95528617,6.53287419 C7.8864883,6.50743871 7.81522234,6.48077742 7.75413723,6.44032581 L7.68564787,6.39466452 L7.68564787,6.31284194 C7.68564787,6.26350323 7.68904149,6.20803548 7.72760532,6.13356774 C8.38195638,4.50845484 8.39676489,3.20511613 7.77326489,2.26063226 C6.94429681,1.02563226 5.32615851,1.01122903 5.31011596,1.01122903 C5.29345638,1.01122903 3.64477553,1.02563226 2.81673298,2.2597129 C2.19230745,3.20511613 2.20742447,4.50845484 2.86177553,6.13356774 L2.88059468,6.18474516 L2.88059468,6.21416452 C2.88985,6.23622903 2.90373298,6.26963226 2.90373298,6.31284194 L2.90373298,6.39466452 L2.83493511,6.44032581 C2.76737128,6.48476129 2.69209468,6.5144871 2.61959468,6.54329355 C2.57393511,6.56076129 2.52673298,6.57945484 2.47922234,6.60305161 L2.46996702,6.60734194 C0.821594681,7.29195484 -0.828628723,8.48435806 0.46341383,14.0050839 C0.520488298,14.2891645 0.773467021,14.4951 1.06500957,14.4951 L7.0164883,14.4951 C7.07572234,15.5928097 7.25836064,16.8838903 7.59895638,18.4155355 C7.65695638,18.7023742 7.9096266,18.9080032 8.20116915,18.9080032 L8.28385,18.9080032 L20.6714777,18.9080032 L20.7541585,18.9080032 C21.0453926,18.9080032 21.2983713,18.7023742 21.3560628,18.4155355 C21.696967,16.8838903 21.8796053,15.5928097 21.9388394,14.4951 L27.8903181,14.4951 C28.1815521,14.4951 28.4348394,14.2891645 28.4919138,14.0050839 C29.7839564,8.48435806 28.133733,7.29195484 26.4853606,6.60734194 L26.4853606,6.60734194 Z" id="Fill-1" fill="#EB2B80"></path>
                        <mask id="mask-2" fill="white">
                            <use xlink:href="#path-1"></use>
                        </mask>
                        <g id="Clip-2"></g>
                    </g>
                </g>
            </g>
        </g>
    </g>
</svg>