<?xml version="1.0" encoding="UTF-8" standalone="no"?>
<svg width="37px" height="37px" viewBox="0 0 37 37" version="1.1" xmlns="http://www.w3.org/2000/svg" xmlns:xlink="http://www.w3.org/1999/xlink">
    <!-- Generator: Sketch 42 (36781) - http://www.bohemiancoding.com/sketch -->
    <title>interests</title>
    <desc>Created with Sketch.</desc>
    <defs>
        <polygon id="path-1" points="13.9865006 18 27.972979 18 27.972979 0 13.9865006 0 2.21827688e-05 0 2.21827688e-05 18"></polygon>
    </defs>
    <g id="Page-1" stroke="none" stroke-width="1" fill="none" fill-rule="evenodd">
        <g id="Full-Bleed-Version---STAND-ALONE-STATE" transform="translate(-828.000000, -639.000000)">
            <g id="New-Nav-V1" transform="translate(289.000000, 626.000000)">
                <g id="interests" transform="translate(540.000000, 14.000000)">
                    <g id="Group-22">
                        <circle id="Oval-Copy" stroke="#A6C74A" fill="#FFFFFF" cx="17.5" cy="17.5" r="17.5"></circle>
                        <g id="Page-1" transform="translate(4.000000, 9.000000)">
                            <mask id="mask-2" fill="white">
                                <use xlink:href="#path-1"></use>
                            </mask>
                            <g id="Clip-2"></g>
                            <path d="M22.836849,13.1250168 C22.5311986,13.0489944 22.2149748,12.9670391 21.8913105,12.8808603 C22.1565273,12.3131061 22.3651566,11.7125698 22.5103455,11.0869944 C22.8791427,11.2565363 23.2349189,11.4238659 23.5729748,11.587676 C26.2991566,12.9089162 27.0300937,13.5594302 27.2231566,13.7928268 C26.9242615,13.8528603 25.9227231,13.8928827 22.836849,13.1250168 M21.6180657,9.91830168 C21.5906531,10.1604469 21.5534503,10.3993743 21.5050867,10.6342793 C21.3633245,11.3232067 21.1328629,11.9783464 20.8281916,12.5885363 C18.5664573,11.9486816 15.9744014,11.106 13.3259538,10.1456648 C10.8436462,9.24556425 8.47852727,8.30202235 6.45782797,7.4096648 C6.59557622,6.72053631 6.8229049,6.06499441 7.12356224,5.45379888 C7.22998182,5.23729609 7.3456042,5.02632402 7.47033147,4.82178771 C8.83019161,2.59260335 11.241814,1.10614525 13.9864993,1.10614525 C18.2241916,1.10614525 21.671814,4.64731844 21.671814,9 C21.671814,9.31072626 21.6522336,9.61682682 21.6180657,9.91830168 M13.9864993,16.8938547 C9.74870909,16.8938547 6.30118462,13.3526816 6.30118462,9 C6.30118462,8.70496089 6.31821958,8.41404469 6.34915664,8.12735196 C8.34880699,9.00522905 10.6692825,9.92886034 13.0977441,10.8094525 C15.7062476,11.7552067 18.2435762,12.5823017 20.4770168,13.2191397 C19.1126531,15.4254972 16.7141497,16.8938547 13.9864993,16.8938547 M4.40012168,6.46059218 C1.67374406,5.13935196 0.942904895,4.48883799 0.749841958,4.25544134 C1.04805175,4.19540782 2.05007972,4.15528492 5.13614965,4.9232514 C5.43553427,4.99776536 5.7452965,5.07801117 6.06191189,5.16217877 C5.80002378,5.73043575 5.59413566,6.33097207 5.45217762,6.95644693 C5.0871007,6.78851397 4.73484895,6.6227933 4.40012168,6.46059218 M27.9304993,13.6436983 C27.848751,13.4241788 27.6001776,12.7563687 23.8192965,10.9287151 C23.4472685,10.7489162 23.0541916,10.5649944 22.6459399,10.3784581 C22.7134923,9.92896089 22.7487371,9.46860335 22.7487371,9 C22.7487371,4.03732961 18.8179678,0 13.9864993,0 C10.7409469,0 7.90188392,1.82182123 6.38773007,4.52202235 C5.90017762,4.39109497 5.42887692,4.26982123 4.98068112,4.16131844 C3.64343636,3.83751955 2.56279301,3.63418994 1.7690028,3.55706145 C0.760513287,3.45901676 0.250541259,3.56631285 0.0641356643,3.91595531 C-0.0131090909,4.06096089 -0.0208433566,4.23442458 0.0424993007,4.40456983 C0.124247552,4.62398883 0.372918881,5.29189944 4.1538,7.11955307 C4.52367413,7.29834637 4.9146951,7.48126257 5.3204993,7.6667933 C5.25735245,8.10191061 5.22426154,8.5470838 5.22426154,9 C5.22426154,13.9626704 9.15493287,18 13.9864993,18 C17.2151147,18 20.0410587,16.1968827 21.5610867,13.5197095 C22.0572545,13.6531508 22.5365832,13.7765363 22.9922196,13.8868492 C24.3295622,14.210648 25.4101077,14.4139777 26.2040937,14.4912067 C26.4399399,14.5141341 26.6484713,14.5258994 26.8319399,14.5258994 C27.4333524,14.5257989 27.7661217,14.4002011 27.9089608,14.1322123 C27.9862056,13.9873073 27.993842,13.813743 27.9304993,13.6436983" id="Fill-1" fill="#666666" mask="url(#mask-2)"></path>
                        </g>
                    </g>
                </g>
            </g>
        </g>
    </g>
</svg>