<?xml version="1.0" encoding="UTF-8" standalone="no"?>
<svg width="41px" height="41px" viewBox="0 0 41 41" version="1.1" xmlns="http://www.w3.org/2000/svg" xmlns:xlink="http://www.w3.org/1999/xlink">
    <!-- Generator: Sketch 42 (36781) - http://www.bohemiancoding.com/sketch -->
    <title>interests / Hover</title>
    <desc>Created with Sketch.</desc>
    <defs>
        <polygon id="path-1" points="15.4850542 20 30.9700839 20 30.9700839 0 15.4850542 0 2.45594938e-05 0 2.45594938e-05 20"></polygon>
    </defs>
    <g id="Page-1" stroke="none" stroke-width="1" fill="none" fill-rule="evenodd">
        <g id="Full-Bleed-Version---HOVER-STATE" transform="translate(-826.000000, -637.000000)">
            <g id="New-Nav-V1" transform="translate(289.000000, 626.000000)">
                <g id="interests-/-Hover" transform="translate(538.000000, 12.000000)">
                    <circle id="Oval-Copy" stroke="#A6C74A" stroke-width="1.1" fill="#FFFFFF" cx="19.5" cy="19.5" r="19.5"></circle>
                    <g id="Page-1" stroke-width="1" transform="translate(5.000000, 10.000000)">
                        <mask id="mask-2" fill="white">
                            <use xlink:href="#path-1"></use>
                        </mask>
                        <g id="Clip-2"></g>
                        <path d="M25.2836542,14.583352 C24.9452556,14.4988827 24.5951507,14.4078212 24.236808,14.312067 C24.5304409,13.6812291 24.7614234,13.0139665 24.9221682,12.3188827 C25.3304794,12.5072626 25.7243745,12.6931844 26.0986507,12.8751955 C29.1169234,14.3432402 29.9261752,15.0660335 30.1399234,15.3253631 C29.8090038,15.392067 28.7001577,15.4365363 25.2836542,14.583352 M23.9342871,11.0203352 C23.9039374,11.2893855 23.8627486,11.5548603 23.8092031,11.8158659 C23.6522521,12.5813408 23.3970983,13.3092737 23.0597836,13.9872626 C20.5557206,13.2763128 17.6859444,12.34 14.7537346,11.2729609 C12.0054654,10.2728492 9.38694091,9.22446927 7.14973811,8.23296089 C7.3022451,7.46726257 7.55393042,6.73888268 7.88680105,6.05977654 C8.00462273,5.81921788 8.13263322,5.58480447 8.27072413,5.3575419 C9.77628357,2.88067039 12.4462941,1.22905028 15.4850528,1.22905028 C20.1767836,1.22905028 23.9937941,5.16368715 23.9937941,10 C23.9937941,10.3452514 23.9721157,10.6853631 23.9342871,11.0203352 M15.4850528,18.7709497 C10.7932136,18.7709497 6.97631154,14.8363128 6.97631154,10 C6.97631154,9.67217877 6.99517168,9.34893855 7.02942343,9.03039106 C9.24332203,10.0058101 11.8124199,11.032067 14.5010738,12.0105028 C17.3890598,13.0613408 20.1982451,13.9803352 22.6709829,14.687933 C21.1604374,17.1394413 18.5049514,18.7709497 15.4850528,18.7709497 M4.87156329,7.17843575 C1.85307378,5.71039106 1.04393042,4.98759777 0.830182168,4.72826816 C1.16034301,4.66156425 2.26973112,4.61698324 5.6864514,5.47027933 C6.01791294,5.55307263 6.36086399,5.64223464 6.71140245,5.73575419 C6.4214549,6.36715084 6.19350734,7.03441341 6.03633951,7.72938547 C5.6321472,7.5427933 5.2421542,7.35865922 4.87156329,7.17843575 M30.9230528,15.1596648 C30.8325458,14.9157542 30.5573395,14.173743 26.371364,12.1430168 C25.9594759,11.9432402 25.5242836,11.7388827 25.0722906,11.5316201 C25.1470808,11.0321788 25.1861017,10.5206704 25.1861017,10 C25.1861017,4.48592179 20.8341787,0 15.4850528,0 C11.8917626,0 8.74851434,2.02424581 7.07212972,5.02446927 C6.53233951,4.87899441 6.01054231,4.74424581 5.51432552,4.62368715 C4.03380455,4.26391061 2.83737797,4.03798883 1.95853881,3.9522905 C0.841996853,3.84335196 0.277384965,3.96256983 0.0710073427,4.35106145 C-0.0145136364,4.51217877 -0.0230765734,4.7049162 0.0470527972,4.89396648 C0.13755979,5.13776536 0.412874476,5.87988827 4.59885,7.91061453 C5.0083535,8.10927374 5.44126958,8.31251397 5.8905528,8.51865922 C5.82064021,9.00212291 5.78400385,9.49675978 5.78400385,10 C5.78400385,15.5140782 10.1358185,20 15.4850528,20 C19.0595913,20 22.188315,17.9965363 23.8712031,15.0218994 C24.4205318,15.1701676 24.9512171,15.3072626 25.4556717,15.4298324 C26.936301,15.7896089 28.1326192,16.0155307 29.0116752,16.1013408 C29.2727906,16.1268156 29.5036647,16.1398883 29.7067906,16.1398883 C30.3726402,16.1397765 30.7410633,16.0002235 30.8992066,15.7024581 C30.9847276,15.5414525 30.9931822,15.3486034 30.9230528,15.1596648" id="Fill-1" fill="#A9C753" mask="url(#mask-2)"></path>
                    </g>
                </g>
            </g>
        </g>
    </g>
</svg>