<?xml version="1.0" encoding="UTF-8" standalone="no"?>
<svg width="41px" height="41px" viewBox="0 0 41 41" version="1.1" xmlns="http://www.w3.org/2000/svg" xmlns:xlink="http://www.w3.org/1999/xlink">
    <!-- Generator: Sketch 42 (36781) - http://www.bohemiancoding.com/sketch -->
    <title>news / Hover</title>
    <desc>Created with Sketch.</desc>
    <defs>
        <polygon id="path-1" points="25 12.5000236 25 25 0 25 0 12.5000236 0 4.71698118e-05 25 4.71698118e-05 25 12.5000236"></polygon>
    </defs>
    <g id="Page-1" stroke="none" stroke-width="1" fill="none" fill-rule="evenodd">
        <g id="Full-Bleed-Version---HOVER-STATE" transform="translate(-725.000000, -637.000000)">
            <g id="New-Nav-V1" transform="translate(289.000000, 626.000000)">
                <g id="news-/-Hover" transform="translate(437.000000, 12.000000)">
                    <circle id="Oval-Copy-2" stroke="#B21E53" stroke-width="1.1" fill="#FFFFFF" cx="19.5" cy="19.5" r="19.5"></circle>
                    <g id="Page-1" stroke-width="1" transform="translate(7.000000, 7.000000)">
                        <mask id="mask-2" fill="white">
                            <use xlink:href="#path-1"></use>
                        </mask>
                        <g id="Clip-2"></g>
                        <path d="M21.295283,19.7440723 C20.5650943,19.020173 19.7459119,18.3868396 18.8564465,17.8593239 C19.4309748,16.3794497 19.7743711,14.7671855 19.838522,13.0766195 L23.8849057,13.0766195 C23.7583333,15.6009906 22.8070755,17.9118396 21.295283,19.7440723 L21.295283,19.7440723 Z M14.5471698,23.7115252 C16.1589623,22.4610535 17.4904088,20.8035063 18.4160377,18.8758333 C19.195283,19.3506761 19.9133648,19.9163994 20.5553459,20.5582233 C18.9506289,22.1624686 16.8698113,23.2885692 14.5471698,23.7115252 L14.5471698,23.7115252 Z M13.0765723,17.2316509 C14.6289308,17.3093239 16.1003145,17.6989465 17.4294025,18.3390409 C16.429717,20.4088522 14.9158805,22.1346384 13.0765723,23.3129403 L13.0765723,17.2316509 Z M13.0765723,13.0766195 L18.7367925,13.0766195 C18.6742138,14.5777201 18.3701258,16.0101101 17.8652516,17.3286635 C16.4025157,16.6303931 14.783805,16.2090094 13.0765723,16.131022 L13.0765723,13.0766195 Z M13.0765723,8.86907233 C14.783805,8.79108491 16.4025157,8.36954403 17.8652516,7.67143082 C18.3701258,8.98998428 18.6742138,10.4223742 18.7367925,11.9234748 L13.0765723,11.9234748 L13.0765723,8.86907233 Z M13.0765723,1.68699686 C14.9158805,2.86545597 16.429717,4.59124214 17.4294025,6.66089623 C16.1003145,7.30099057 14.6289308,7.69077044 13.0765723,7.7684434 L13.0765723,1.68699686 Z M20.5553459,4.44187107 C19.9133648,5.08369497 19.195283,5.64926101 18.4160377,6.12426101 C17.4904088,4.19643082 16.1589623,2.53888365 14.5471698,1.28841195 C16.8698113,1.71152516 18.9506289,2.83762579 20.5553459,4.44187107 L20.5553459,4.44187107 Z M23.8849057,11.9234748 L19.838522,11.9234748 C19.7743711,10.2329088 19.4309748,8.62064465 18.8564465,7.14077044 C19.7459119,6.61309748 20.5650943,5.97976415 21.295283,5.25586478 C22.8070755,7.08825472 23.7583333,9.39894654 23.8849057,11.9234748 L23.8849057,11.9234748 Z M11.9235849,7.7684434 C10.3710692,7.69077044 8.89984277,7.30099057 7.57075472,6.66089623 C8.57028302,4.59124214 10.0841195,2.86545597 11.9235849,1.68715409 L11.9235849,7.7684434 Z M11.9235849,11.9234748 L6.26336478,11.9234748 C6.32578616,10.4223742 6.63003145,8.98998428 7.13459119,7.67143082 C8.59764151,8.36954403 10.2163522,8.79108491 11.9235849,8.86907233 L11.9235849,11.9234748 Z M11.9235849,16.131022 C10.2163522,16.2090094 8.59764151,16.6303931 7.13459119,17.3286635 C6.63003145,16.0101101 6.32578616,14.5777201 6.26336478,13.0766195 L11.9235849,13.0766195 L11.9235849,16.131022 Z M11.9235849,23.3129403 C10.0841195,22.1344811 8.57028302,20.4088522 7.57075472,18.3390409 C8.89984277,17.6989465 10.3710692,17.3093239 11.9235849,17.2316509 L11.9235849,23.3129403 Z M4.44465409,20.5582233 C5.08663522,19.9163994 5.80487421,19.3506761 6.5841195,18.8758333 C7.50959119,20.8035063 8.84119497,22.4610535 10.4528302,23.7115252 C8.13018868,23.2885692 6.04937107,22.1624686 4.44465409,20.5582233 L4.44465409,20.5582233 Z M1.11525157,13.0766195 L5.16163522,13.0766195 C5.22562893,14.7671855 5.56902516,16.3794497 6.14339623,17.8593239 C5.25424528,18.3868396 4.43490566,19.020173 3.70471698,19.7440723 C2.19292453,17.9118396 1.24166667,15.6009906 1.11525157,13.0766195 L1.11525157,13.0766195 Z M3.70471698,5.25586478 C4.43490566,5.97976415 5.25424528,6.61309748 6.14339623,7.14077044 C5.56902516,8.62064465 5.22562893,10.2329088 5.16163522,11.9234748 L1.11525157,11.9234748 C1.24166667,9.39894654 2.19292453,7.08825472 3.70471698,5.25586478 L3.70471698,5.25586478 Z M10.4528302,1.28841195 C8.84119497,2.53888365 7.50959119,4.19643082 6.5841195,6.12426101 C5.80487421,5.64926101 5.08663522,5.08369497 4.44465409,4.44187107 C6.04937107,2.83762579 8.13018868,1.71152516 10.4528302,1.28841195 L10.4528302,1.28841195 Z M22.0454403,4.44187107 C21.8070755,4.1597956 21.5573899,3.88746855 21.295283,3.62772013 C19.0350629,1.38683962 15.9267296,4.71698118e-05 12.5,4.71698118e-05 C9.07342767,4.71698118e-05 5.96493711,1.38683962 3.70471698,3.62772013 C3.44261006,3.88746855 3.19308176,4.1597956 2.95471698,4.44187107 C1.11352201,6.61954403 0,9.43149371 0,12.5000472 C0,15.5684434 1.11352201,18.3803931 2.95471698,20.5582233 C3.19308176,20.8402987 3.44261006,21.1124686 3.70471698,21.372217 C5.96493711,23.6130975 9.07342767,25.0000472 12.5,25.0000472 C15.9267296,25.0000472 19.0350629,23.6130975 21.295283,21.372217 C21.5573899,21.1124686 21.8070755,20.8402987 22.0454403,20.5582233 C23.8866352,18.3803931 25,15.5684434 25,12.5000472 C25,9.43149371 23.8866352,6.61954403 22.0454403,4.44187107 L22.0454403,4.44187107 Z" id="Fill-1" fill="#B32A5B" mask="url(#mask-2)"></path>
                    </g>
                </g>
            </g>
        </g>
    </g>
</svg>