<?xml version="1.0" encoding="UTF-8" standalone="no"?>
<svg width="37px" height="37px" viewBox="0 0 37 37" version="1.1" xmlns="http://www.w3.org/2000/svg" xmlns:xlink="http://www.w3.org/1999/xlink">
    <!-- Generator: Sketch 42 (36781) - http://www.bohemiancoding.com/sketch -->
    <title>news / Active</title>
    <desc>Created with Sketch.</desc>
    <defs>
        <polygon id="path-1" points="23 11.5000217 23 23 0 23 0 11.5000217 0 4.33962268e-05 23 4.33962268e-05 23 11.5000217"></polygon>
    </defs>
    <g id="Page-1" stroke="none" stroke-width="1" fill="none" fill-rule="evenodd">
        <g id="Full-Bleed-Version---CLICKED-STATE" transform="translate(-727.000000, -639.000000)">
            <g id="New-Nav-V1" transform="translate(289.000000, 626.000000)">
                <g id="news-/-Active" transform="translate(439.000000, 14.000000)">
                    <circle id="Oval-Copy-2" stroke="#B21E53" fill="#B21E53" cx="17.5" cy="17.5" r="17.5"></circle>
                    <g id="Page-1" transform="translate(6.000000, 6.000000)">
                        <mask id="mask-2" fill="white">
                            <use xlink:href="#path-1"></use>
                        </mask>
                        <g id="Clip-2"></g>
                        <path d="M19.5916604,18.1645465 C18.9198868,17.4985591 18.166239,16.9158925 17.3479308,16.430578 C17.8764969,15.0690937 18.1924214,13.5858107 18.2514403,12.0304899 L21.9741132,12.0304899 C21.8576667,14.3529113 20.9825094,16.4788925 19.5916604,18.1645465 L19.5916604,18.1645465 Z M13.3833962,21.8146031 C14.8662453,20.6641692 16.0911761,19.1392258 16.9427547,17.3657667 C17.6596604,17.802622 18.3202956,18.3230874 18.9109182,18.9135654 C17.4345786,20.3894711 15.5202264,21.4254836 13.3833962,21.8146031 L13.3833962,21.8146031 Z M12.0304465,15.8531189 C13.4586164,15.924578 14.8122893,16.2830308 16.0350503,16.8719176 C15.1153396,18.776144 13.7226101,20.3638673 12.0304465,21.447905 L12.0304465,15.8531189 Z M12.0304465,12.0304899 L17.2378491,12.0304899 C17.1802767,13.4115025 16.9005157,14.7293013 16.4360314,15.9423704 C15.0903145,15.2999616 13.6011006,14.9122887 12.0304465,14.8405403 L12.0304465,12.0304899 Z M12.0304465,8.15954654 C13.6011006,8.08779811 15.0903145,7.6999805 16.4360314,7.05771635 C16.9005157,8.27078553 17.1802767,9.58858428 17.2378491,10.9695969 L12.0304465,10.9695969 L12.0304465,8.15954654 Z M12.0304465,1.55203711 C13.7226101,2.6362195 15.1153396,4.22394277 16.0350503,6.12802453 C14.8122893,6.71691132 13.4586164,7.07550881 12.0304465,7.14696792 L12.0304465,1.55203711 Z M18.9109182,4.08652138 C18.3202956,4.67699937 17.6596604,5.19732013 16.9427547,5.63432013 C16.0911761,3.86071635 14.8662453,2.33577296 13.3833962,1.18533899 C15.5202264,1.57460314 17.4345786,2.61061572 18.9109182,4.08652138 L18.9109182,4.08652138 Z M21.9741132,10.9695969 L18.2514403,10.9695969 C18.1924214,9.4142761 17.8764969,7.93099308 17.3479308,6.56950881 C18.166239,6.08404969 18.9198868,5.50138302 19.5916604,4.8353956 C20.9825094,6.52119434 21.8576667,8.64703082 21.9741132,10.9695969 L21.9741132,10.9695969 Z M10.9696981,7.14696792 C9.54138365,7.07550881 8.18785535,6.71691132 6.96509434,6.12802453 C7.88466038,4.22394277 9.27738994,2.6362195 10.9696981,1.55218176 L10.9696981,7.14696792 Z M10.9696981,10.9695969 L5.7622956,10.9695969 C5.81972327,9.58858428 6.09962893,8.27078553 6.5638239,7.05771635 C7.90983019,7.6999805 9.39904403,8.08779811 10.9696981,8.15954654 L10.9696981,10.9695969 Z M10.9696981,14.8405403 C9.39904403,14.9122887 7.90983019,15.2999616 6.5638239,15.9423704 C6.09962893,14.7293013 5.81972327,13.4115025 5.7622956,12.0304899 L10.9696981,12.0304899 L10.9696981,14.8405403 Z M10.9696981,21.447905 C9.27738994,20.3637226 7.88466038,18.776144 6.96509434,16.8719176 C8.18785535,16.2830308 9.54138365,15.924578 10.9696981,15.8531189 L10.9696981,21.447905 Z M4.08908176,18.9135654 C4.6797044,18.3230874 5.34048428,17.802622 6.05738994,17.3657667 C6.9088239,19.1392258 8.13389937,20.6641692 9.61660377,21.8146031 C7.47977358,21.4254836 5.56542138,20.3894711 4.08908176,18.9135654 L4.08908176,18.9135654 Z M1.02603145,12.0304899 L4.7487044,12.0304899 C4.80757862,13.5858107 5.12350314,15.0690937 5.65192453,16.430578 C4.83390566,16.9158925 4.08011321,17.4985591 3.40833962,18.1645465 C2.01749057,16.4788925 1.14233333,14.3529113 1.02603145,12.0304899 L1.02603145,12.0304899 Z M3.40833962,4.8353956 C4.08011321,5.50138302 4.83390566,6.08404969 5.65192453,6.56950881 C5.12350314,7.93099308 4.80757862,9.4142761 4.7487044,10.9695969 L1.02603145,10.9695969 C1.14233333,8.64703082 2.01749057,6.52119434 3.40833962,4.8353956 L3.40833962,4.8353956 Z M9.61660377,1.18533899 C8.13389937,2.33577296 6.9088239,3.86071635 6.05738994,5.63432013 C5.34048428,5.19732013 4.6797044,4.67699937 4.08908176,4.08652138 C5.56542138,2.61061572 7.47977358,1.57460314 9.61660377,1.18533899 L9.61660377,1.18533899 Z M20.281805,4.08652138 C20.0625094,3.82701195 19.8327987,3.57647107 19.5916604,3.33750252 C17.5122579,1.27589245 14.6525912,4.33962268e-05 11.5,4.33962268e-05 C8.34755346,4.33962268e-05 5.48774214,1.27589245 3.40833962,3.33750252 C3.16720126,3.57647107 2.93763522,3.82701195 2.71833962,4.08652138 C1.02444025,6.0899805 0,8.67697421 0,11.5000434 C0,14.3229679 1.02444025,16.9099616 2.71833962,18.9135654 C2.93763522,19.1730748 3.16720126,19.4234711 3.40833962,19.6624396 C5.48774214,21.7240497 8.34755346,23.0000434 11.5,23.0000434 C14.6525912,23.0000434 17.5122579,21.7240497 19.5916604,19.6624396 C19.8327987,19.4234711 20.0625094,19.1730748 20.281805,18.9135654 C21.9757044,16.9099616 23,14.3229679 23,11.5000434 C23,8.67697421 21.9757044,6.0899805 20.281805,4.08652138 L20.281805,4.08652138 Z" id="Fill-1" fill="#FFFFFF" mask="url(#mask-2)"></path>
                    </g>
                </g>
            </g>
        </g>
    </g>
</svg>