<?xml version="1.0" encoding="UTF-8" standalone="no"?>
<svg width="41px" height="41px" viewBox="0 0 41 41" version="1.1" xmlns="http://www.w3.org/2000/svg" xmlns:xlink="http://www.w3.org/1999/xlink">
    <!-- Generator: Sketch 42 (36781) - http://www.bohemiancoding.com/sketch -->
    <title>notebook / Hover</title>
    <desc>Created with Sketch.</desc>
    <defs>
        <polygon id="path-1" points="0 20.8904497 0 0.133458413 16.9977963 0.133458413 16.9977963 20.8904497"></polygon>
    </defs>
    <g id="Page-1" stroke="none" stroke-width="1" fill="none" fill-rule="evenodd">
        <g id="Full-Bleed-Version---HOVER-STATE" transform="translate(-421.000000, -637.000000)">
            <g id="New-Nav-V1" transform="translate(289.000000, 626.000000)">
                <g id="notebook-/-Hover" transform="translate(133.000000, 12.000000)">
                    <circle id="Oval-Copy-5" stroke="#038247" stroke-width="1.1" fill="#FFFFFF" cx="19.5" cy="19.5" r="19.5"></circle>
                    <g id="Page-1" stroke-width="1" transform="translate(11.000000, 9.000000)">
                        <path d="M11.3384019,7.0931868 C11.3384019,8.29356106 10.3155685,9.27015201 9.05835556,9.27015201 C7.80114259,9.27015201 6.77830926,8.29356106 6.77830926,7.0931868 C6.77830926,5.89281254 7.80114259,4.91622158 9.05835556,4.91622158 C10.3155685,4.91622158 11.3384019,5.89281254 11.3384019,7.0931868 M9.05835556,4.05264947 C7.30231852,4.05264947 5.8738463,5.41669063 5.8738463,7.0931868 C5.8738463,8.76968296 7.30231852,10.1337241 9.05835556,10.1337241 C10.8142352,10.1337241 12.2428648,8.76968296 12.2428648,7.0931868 C12.2428648,5.41669063 10.8142352,4.05264947 9.05835556,4.05264947" id="Fill-1" fill="#128751"></path>
                        <g id="Group-5" transform="translate(0.000000, 0.016833)">
                            <mask id="mask-2" fill="white">
                                <use xlink:href="#path-1"></use>
                            </mask>
                            <g id="Clip-4"></g>
                            <path d="M2.41659722,18.5800261 L2.41659722,18.0833143 L2.65144907,18.0833143 C3.08589352,18.0833143 3.43943056,17.7457607 3.43943056,17.3308073 C3.43943056,16.9161544 3.08589352,16.5786008 2.65144907,16.5786008 L2.41659722,16.5786008 L2.41659722,13.6025383 L2.65144907,13.6025383 C3.08589352,13.6025383 3.43943056,13.2649847 3.43943056,12.8500312 C3.43943056,12.4352281 3.08589352,12.0976745 2.65144907,12.0976745 L2.41659722,12.0976745 L2.41659722,9.12161198 L2.65144907,9.12161198 C3.08589352,9.12161198 3.43943056,8.78405839 3.43943056,8.3694055 C3.43943056,7.95445204 3.08589352,7.61689844 2.65144907,7.61689844 L2.41659722,7.61689844 L2.41659722,4.44530735 L2.65144907,4.44530735 C3.08589352,4.44530735 3.43943056,4.10775376 3.43943056,3.69295058 C3.43943056,3.27814741 3.08589352,2.94044352 2.65144907,2.94044352 L2.41659722,2.94044352 L2.41659722,2.44463349 C2.41659722,1.85338868 2.92030093,1.37245746 3.53954167,1.37245746 L14.5778935,1.37245746 C15.1911528,1.37245746 15.6945417,1.84903024 15.700838,2.44463349 L15.700838,18.5800261 C15.700838,19.1711206 15.1969769,19.6520519 14.5778935,19.6520519 L3.52915278,19.6514507 C2.91573611,19.6461905 2.41659722,19.1655599 2.41659722,18.5800261 M14.5778935,0.133458413 L3.53954167,0.133458413 C2.20472685,0.133458413 1.11893056,1.17016577 1.11893056,2.44463349 L1.11893056,2.94044352 L0.788060185,2.94044352 C0.353615741,2.94044352 -7.87037035e-05,3.27814741 -7.87037035e-05,3.69295058 C-7.87037035e-05,4.10775376 0.353615741,4.44530735 0.788060185,4.44530735 L1.11893056,4.44530735 L1.11893056,7.61689844 L0.788060185,7.61689844 C0.353615741,7.61689844 -7.87037035e-05,7.95445204 -7.87037035e-05,8.3694055 C-7.87037035e-05,8.78405839 0.353615741,9.12161198 0.788060185,9.12161198 L1.11893056,9.12161198 L1.11893056,12.0976745 L0.788060185,12.0976745 C0.353615741,12.0976745 -7.87037035e-05,12.4352281 -7.87037035e-05,12.8500312 C-7.87037035e-05,13.2649847 0.353615741,13.6025383 0.788060185,13.6025383 L1.11893056,13.6025383 L1.11893056,16.5786008 L0.788060185,16.5786008 C0.353615741,16.5786008 -7.87037035e-05,16.9161544 -7.87037035e-05,17.3308073 C-7.87037035e-05,17.7457607 0.353615741,18.0833143 0.788060185,18.0833143 L1.11893056,18.0833143 L1.11893056,18.5800261 C1.11893056,19.847881 2.199375,20.8842878 3.52820833,20.8904497 L14.5898565,20.8904497 C15.9109769,20.8842878 16.9912639,19.8531412 16.997875,18.5908471 L16.997875,2.43306108 C16.9914213,1.16505587 15.9057824,0.133458413 14.5778935,0.133458413" id="Fill-3" fill="#128751" mask="url(#mask-2)"></path>
                        </g>
                    </g>
                </g>
            </g>
        </g>
    </g>
</svg>