<?xml version="1.0" encoding="UTF-8" standalone="no"?>
<svg width="37px" height="37px" viewBox="0 0 37 37" version="1.1" xmlns="http://www.w3.org/2000/svg" xmlns:xlink="http://www.w3.org/1999/xlink">
    <!-- Generator: Sketch 42 (36781) - http://www.bohemiancoding.com/sketch -->
    <title>notebook / Active</title>
    <desc>Created with Sketch.</desc>
    <defs>
        <polygon id="path-1" points="0 19.0738889 0 0.121853333 14.9980556 0.121853333 14.9980556 19.0738889"></polygon>
    </defs>
    <g id="Page-1" stroke="none" stroke-width="1" fill="none" fill-rule="evenodd">
        <g id="Full-Bleed-Version---CLICKED-STATE" transform="translate(-423.000000, -639.000000)">
            <g id="New-Nav-V1" transform="translate(289.000000, 626.000000)">
                <g id="notebook-/-Active" transform="translate(135.000000, 14.000000)">
                    <circle id="Oval-Copy-5" stroke="#038247" fill="#128851" cx="17.5" cy="17.5" r="17.5"></circle>
                    <g id="Page-1" transform="translate(10.000000, 8.000000)">
                        <path d="M10.0044722,6.47638794 C10.0044722,7.57238183 9.10197222,8.46405183 7.99266667,8.46405183 C6.88336111,8.46405183 5.98086111,7.57238183 5.98086111,6.47638794 C5.98086111,5.38039406 6.88336111,4.48872406 7.99266667,4.48872406 C9.10197222,4.48872406 10.0044722,5.38039406 10.0044722,6.47638794 M7.99266667,3.70024517 C6.44322222,3.70024517 5.18280556,4.94567406 5.18280556,6.47638794 C5.18280556,8.00710183 6.44322222,9.25253072 7.99266667,9.25253072 C9.54197222,9.25253072 10.8025278,8.00710183 10.8025278,6.47638794 C10.8025278,4.94567406 9.54197222,3.70024517 7.99266667,3.70024517" id="Fill-1" fill="#FFFFFF"></path>
                        <g id="Group-5" transform="translate(0.000000, 0.015369)">
                            <mask id="mask-2" fill="white">
                                <use xlink:href="#path-1"></use>
                            </mask>
                            <g id="Clip-4"></g>
                            <path d="M2.13229167,16.9643717 L2.13229167,16.5108522 L2.33951389,16.5108522 C2.72284722,16.5108522 3.03479167,16.2026511 3.03479167,15.8237806 C3.03479167,15.4451844 2.72284722,15.1369833 2.33951389,15.1369833 L2.13229167,15.1369833 L2.13229167,12.4197089 L2.33951389,12.4197089 C2.72284722,12.4197089 3.03479167,12.1115078 3.03479167,11.7326372 C3.03479167,11.3539039 2.72284722,11.0457028 2.33951389,11.0457028 L2.13229167,11.0457028 L2.13229167,8.32842833 L2.33951389,8.32842833 C2.72284722,8.32842833 3.03479167,8.02022722 3.03479167,7.64163111 C3.03479167,7.26276056 2.72284722,6.95455944 2.33951389,6.95455944 L2.13229167,6.95455944 L2.13229167,4.05875889 L2.33951389,4.05875889 C2.72284722,4.05875889 3.03479167,3.75055778 3.03479167,3.37182444 C3.03479167,2.99309111 2.72284722,2.68475278 2.33951389,2.68475278 L2.13229167,2.68475278 L2.13229167,2.23205667 C2.13229167,1.69222444 2.57673611,1.25311333 3.123125,1.25311333 L12.8628472,1.25311333 C13.4039583,1.25311333 13.848125,1.688245 13.8536806,2.23205667 L13.8536806,16.9643717 C13.8536806,17.5040667 13.4090972,17.9431778 12.8628472,17.9431778 L3.11395833,17.9426289 C2.57270833,17.9378261 2.13229167,17.4989894 2.13229167,16.9643717 M12.8628472,0.121853333 L3.123125,0.121853333 C1.94534722,0.121853333 0.987291667,1.06841222 0.987291667,2.23205667 L0.987291667,2.68475278 L0.695347222,2.68475278 C0.312013889,2.68475278 -6.94444443e-05,2.99309111 -6.94444443e-05,3.37182444 C-6.94444443e-05,3.75055778 0.312013889,4.05875889 0.695347222,4.05875889 L0.987291667,4.05875889 L0.987291667,6.95455944 L0.695347222,6.95455944 C0.312013889,6.95455944 -6.94444443e-05,7.26276056 -6.94444443e-05,7.64163111 C-6.94444443e-05,8.02022722 0.312013889,8.32842833 0.695347222,8.32842833 L0.987291667,8.32842833 L0.987291667,11.0457028 L0.695347222,11.0457028 C0.312013889,11.0457028 -6.94444443e-05,11.3539039 -6.94444443e-05,11.7326372 C-6.94444443e-05,12.1115078 0.312013889,12.4197089 0.695347222,12.4197089 L0.987291667,12.4197089 L0.987291667,15.1369833 L0.695347222,15.1369833 C0.312013889,15.1369833 -6.94444443e-05,15.4451844 -6.94444443e-05,15.8237806 C-6.94444443e-05,16.2026511 0.312013889,16.5108522 0.695347222,16.5108522 L0.987291667,16.5108522 L0.987291667,16.9643717 C0.987291667,18.1219783 1.940625,19.0682628 3.113125,19.0738889 L12.8734028,19.0738889 C14.0390972,19.0682628 14.9922917,18.1267811 14.998125,16.9742517 L14.998125,2.22149056 C14.9924306,1.06374667 14.0345139,0.121853333 12.8628472,0.121853333" id="Fill-3" fill="#FFFFFF" mask="url(#mask-2)"></path>
                        </g>
                    </g>
                </g>
            </g>
        </g>
    </g>
</svg>