<?xml version="1.0" encoding="UTF-8" standalone="no"?>
<svg width="15px" height="14px" viewBox="0 0 15 14" version="1.1" xmlns="http://www.w3.org/2000/svg" xmlns:xlink="http://www.w3.org/1999/xlink">
    <!-- Generator: Sketch 41.2 (35397) - http://www.bohemiancoding.com/sketch -->
    <title>add</title>
    <desc>Created with Sketch.</desc>
    <defs></defs>
    <g id="all-chat-files" stroke="none" stroke-width="1" fill="none" fill-rule="evenodd">
        <g id="Artboard" transform="translate(-92.000000, -62.000000)" fill="#AAAAAA">
            <g id="add" transform="translate(92.000000, 62.000000)">
                <path d="M6.19682308,8.94863077 C6.34174615,8.90616923 6.53651538,8.77001538 6.64036154,8.36293846 C6.66805385,8.25424615 6.77536154,7.68609231 6.64059231,7.51993846 L5.81766923,6.22878462 C5.59682308,5.89278462 5.58366923,4.63416923 5.66697692,3.54009231 C5.79228462,2.94516923 6.11674615,2.43424615 6.5829,2.09893846 C7.00405385,1.77978462 7.52651538,1.60370769 8.05382308,1.60370769 C8.56013077,1.60370769 9.05420769,1.75970769 9.48043846,2.05347692 C10.0045154,2.42801538 10.3652077,3.01070769 10.4688231,3.63932308 C10.4946692,4.16709231 10.5115154,5.76401538 10.2562846,6.16532308 L9.38951538,7.51463077 C9.28174615,7.65816923 9.33459231,8.2104 9.42436154,8.48109231 C9.51020769,8.73793846 9.64613077,8.89532308 9.82751538,8.94793846 L11.1569769,9.35316923 C11.9729769,9.59478462 12.6689769,10.1627077 13.0661308,10.9108615 L13.4865923,11.7033231 C13.5389769,11.8030154 13.5357462,11.9193231 13.4785154,12.0141692 C13.4208231,12.1094769 13.3179,12.1662462 13.2036692,12.1662462 L2.82274615,12.1662462 C2.70828462,12.1662462 2.60559231,12.1094769 2.5479,12.0141692 C2.49066923,11.9193231 2.48743846,11.8032462 2.53913077,11.7042462 L2.96028462,10.9108615 C3.35720769,10.1627077 4.05343846,9.59501538 4.87082308,9.35270769 L6.19682308,8.94863077 Z M14.6526692,11.0694 L14.2340538,10.2806308 C13.6931308,9.19901538 12.7114385,8.38393846 11.5414385,8.04447692 L10.7983615,7.82547692 L11.3898231,6.89224615 C11.8949769,6.10786154 11.8119,3.57516923 11.8070538,3.45493846 C11.6554385,2.4624 11.0958231,1.54832308 10.2705923,0.946707692 C9.61151538,0.478246154 8.8449,0.230861538 8.05382308,0.230861538 C7.22651538,0.230861538 6.40843846,0.5094 5.74982308,1.01547692 C5.02659231,1.57093846 4.52351538,2.37447692 4.33105385,3.29247692 C4.31097692,3.58093846 4.14874615,6.13486154 4.6689,6.9564 L5.22666923,7.82570769 L4.48566923,8.04424615 C3.34105385,8.37632308 2.34828462,9.18955385 1.76213077,10.2767077 L1.33982308,11.0721692 C1.06728462,11.5983231 1.0809,12.1974 1.37859231,12.7180154 C1.68459231,13.2222462 2.21859231,13.5231692 2.80659231,13.5231692 L13.1875154,13.5231692 C13.7741308,13.5231692 14.3212846,13.2141692 14.6150538,12.7180154 C14.9307462,12.1990154 14.9443615,11.5983231 14.6526692,11.0694 L14.6526692,11.0694 Z" id="Fill-1"></path>
                <path d="M2.91062308,4.83669231 L2.04039231,4.83669231 L2.04039231,3.96646154 C2.04039231,3.75207692 1.86477692,3.57646154 1.65016154,3.57646154 C1.43577692,3.57646154 1.26039231,3.75207692 1.26039231,3.96646154 L1.26039231,4.83669231 L0.389930769,4.83669231 C0.175315385,4.83669231 0.000161538464,5.01230769 0.000161538464,5.22669231 C0.000161538464,5.44107692 0.175315385,5.61669231 0.389930769,5.61669231 L1.26039231,5.61669231 L1.26039231,6.48692308 C1.26039231,6.70153846 1.43577692,6.87692308 1.65016154,6.87692308 C1.86477692,6.87692308 2.04039231,6.70153846 2.04039231,6.48692308 L2.04039231,5.61669231 L2.91062308,5.61669231 C3.12500769,5.61669231 3.30039231,5.44107692 3.30039231,5.22669231 C3.30039231,5.01230769 3.12500769,4.83669231 2.91062308,4.83669231" id="Fill-4"></path>
            </g>
        </g>
    </g>
</svg>