<?xml version="1.0" encoding="UTF-8" standalone="no"?>
<svg width="13px" height="13px" viewBox="0 0 13 13" version="1.1" xmlns="http://www.w3.org/2000/svg" xmlns:xlink="http://www.w3.org/1999/xlink">
    <!-- Generator: Sketch 41.2 (35397) - http://www.bohemiancoding.com/sketch -->
    <title>call</title>
    <desc>Created with Sketch.</desc>
    <defs></defs>
    <g id="all-chat-files" stroke="none" stroke-width="1" fill="none" fill-rule="evenodd">
        <g id="Artboard" transform="translate(-116.000000, -62.000000)" fill="#AAAAAA">
            <path d="M126.005938,69.6733645 C125.895114,69.6051653 125.76061,69.5720129 125.613792,69.5720129 C125.42435,69.5720129 125.215016,69.6269512 125.010418,69.7349333 C124.811504,69.8400739 124.207182,70.1839118 123.9126,70.3525156 C123.652116,70.1697036 123.041165,69.7017809 122.07785,68.7365719 C121.120219,67.7789405 120.648507,67.1623055 120.464748,66.8999278 C120.633352,66.6043976 120.976242,66.0000763 121.080436,65.8011618 C121.278403,65.4270131 121.301136,65.0519171 121.14011,64.7999587 C120.989503,64.5612613 119.618887,62.4792893 119.476806,62.2841636 C119.343249,62.0994573 119.105499,62 118.845015,62 C118.640417,62 118.423506,62.0615688 118.235958,62.192284 C118.217014,62.205545 116.397419,63.5259586 116.422994,64.2770977 C116.489299,66.3865388 118.537171,68.8653927 120.2431,70.5741632 C121.948082,72.2819864 124.425988,74.3327005 126.541113,74.3999525 C127.298883,74.3999525 128.601299,72.6021441 128.613613,72.5841471 C128.955556,72.0953857 128.830524,71.5583165 128.519839,71.3395105 C128.330396,71.2069008 126.259791,69.8287073 126.005938,69.6733645 Z" id="call"></path>
        </g>
    </g>
</svg>