<?xml version="1.0" encoding="UTF-8" standalone="no"?>
<svg width="9px" height="9px" viewBox="0 0 9 9" version="1.1" xmlns="http://www.w3.org/2000/svg" xmlns:xlink="http://www.w3.org/1999/xlink">
    <!-- Generator: Sketch 41.2 (35397) - http://www.bohemiancoding.com/sketch -->
    <title>exit</title>
    <desc>Created with Sketch.</desc>
    <defs></defs>
    <g id="all-chat-files" stroke="none" stroke-width="1" fill="none" fill-rule="evenodd">
        <g id="Artboard" transform="translate(-158.000000, -65.000000)" fill="#AAAAAA">
            <path d="M165.608759,65.3074334 L162.944574,67.9402744 L160.28039,65.3074334 C159.961507,64.9922144 159.43961,64.9922144 159.120638,65.3074334 C158.801844,65.6225648 158.801844,66.138322 159.120638,66.453541 L161.784911,69.0862945 L159.120638,71.7192231 C158.801844,72.0343545 158.801844,72.5500241 159.120638,72.8652431 C159.43961,73.1803746 159.961507,73.1803746 160.28039,72.8652431 L162.944574,70.2324021 L165.608759,72.8652431 C165.92773,73.1803746 166.449539,73.1803746 166.768511,72.8652431 C167.087482,72.5500241 167.087482,72.0343545 166.768511,71.7192231 L164.104238,69.0862945 L166.768511,66.453541 C167.087482,66.138322 167.087482,65.6225648 166.768511,65.3074334 C166.449539,64.9922144 165.92773,64.9922144 165.608759,65.3074334 Z" id="exit"></path>
        </g>
    </g>
</svg>