<?xml version="1.0" encoding="UTF-8" standalone="no"?>
<svg width="48px" height="44px" viewBox="0 0 48 44" version="1.1" xmlns="http://www.w3.org/2000/svg" xmlns:xlink="http://www.w3.org/1999/xlink">
    <!-- Generator: Sketch 43.1 (39012) - http://www.bohemiancoding.com/sketch -->
    <title>noun_131915_cc</title>
    <desc>Created with Sketch.</desc>
    <defs></defs>
    <g id="Page-1" stroke="none" stroke-width="1" fill="none" fill-rule="evenodd">
        <g id="noun_131915_cc" fill-rule="nonzero" fill="#BDBEBE">
            <path d="M43.922,4.653 C41.279,2.009 37.721,0.546 33.963,0.584 C30.189,0.603 26.643,2.081 23.98,4.745 L11.68,17.045 L3.157,25.566 C-0.986,29.71 -1.06,36.378 2.99,40.428 C4.986,42.424 7.616,43.417 10.267,43.417 C12.997,43.417 15.749,42.362 17.85,40.261 L33.397,24.716 C33.399,24.714 33.399,24.712 33.401,24.711 L38.759,19.353 C40.153,17.96 40.935,16.113 40.96,14.153 C40.986,12.178 40.244,10.335 38.87,8.961 C36.036,6.126 31.374,6.174 28.476,9.069 L9.689,27.857 C9.126,28.42 9.126,29.331 9.689,29.893 C9.97,30.173 10.338,30.314 10.707,30.314 C11.076,30.314 11.444,30.173 11.725,29.893 L30.512,11.105 C32.285,9.331 35.121,9.281 36.834,10.995 C37.654,11.815 38.097,12.923 38.081,14.114 C38.064,15.319 37.584,16.456 36.724,17.315 L31.174,22.866 C31.172,22.868 31.172,22.87 31.17,22.871 L15.814,38.225 C12.794,41.245 7.954,41.319 5.025,38.392 C2.097,35.463 2.171,30.622 5.192,27.601 L6.15,26.643 C6.151,26.641 6.154,26.641 6.155,26.639 L26.016,6.78 C28.139,4.656 30.967,3.477 33.977,3.463 C36.975,3.483 39.791,4.593 41.887,6.689 C46.237,11.04 46.196,18.161 41.794,22.562 L25.459,38.895 C24.896,39.457 24.896,40.368 25.459,40.93 C25.74,41.211 26.109,41.352 26.477,41.352 C26.846,41.352 27.214,41.211 27.495,40.93 L43.83,24.596 C49.354,19.073 49.395,10.126 43.922,4.653 Z" id="Shape"></path>
        </g>
    </g>
</svg>