<?xml version="1.0" encoding="UTF-8" standalone="no"?>
<svg width="16px" height="9px" viewBox="0 0 16 9" version="1.1" xmlns="http://www.w3.org/2000/svg" xmlns:xlink="http://www.w3.org/1999/xlink">
    <!-- Generator: Sketch 41.2 (35397) - http://www.bohemiancoding.com/sketch -->
    <title>video call</title>
    <desc>Created with Sketch.</desc>
    <defs></defs>
    <g id="all-chat-files" stroke="none" stroke-width="1" fill="none" fill-rule="evenodd">
        <g id="Artboard" transform="translate(-136.000000, -65.000000)" fill="#AAAAAA">
            <g id="video-call" transform="translate(135.636364, 64.727273)">
                <path d="M8.86864463,0.608355372 L2.05319008,0.608355372 C1.31608264,0.608355372 0.712859504,1.21157851 0.712859504,1.94868595 L0.712859504,6.97678512 C0.712859504,7.71389256 1.31608264,8.3171157 2.05319008,8.3171157 L8.86864463,8.3171157 C9.60575207,8.3171157 10.209719,7.71389256 10.209719,6.97678512 L10.209719,5.89455372 L10.209719,3.00042149 L10.209719,1.94868595 C10.209719,1.21157851 9.60575207,0.608355372 8.86864463,0.608355372" id="Fill-4"></path>
                <path d="M14.2212645,1.31072727 L12.3111818,2.4018843 L11.5844876,2.81618182 C11.3873802,2.92923967 11.2653967,3.13899174 11.2653967,3.36659504 L11.2653967,5.52957025 C11.2653967,5.75494215 11.3851488,5.96246281 11.579281,6.07626446 L12.291843,6.49204959 L14.1922562,7.60105785 C14.3633306,7.70072727 14.5968843,7.87477686 14.7240744,7.74907438 C15.8963058,6.59469421 16.0220083,2.1794876 14.7240744,1.16866116 C14.5909339,1.06452893 14.384157,1.21775207 14.2212645,1.31072727" id="Fill-8"></path>
            </g>
        </g>
    </g>
</svg>