<svg id="SvgjsSvg1015" xmlns="http://www.w3.org/2000/svg" version="1.1" xmlns:xlink="http://www.w3.org/1999/xlink" xmlns:svgjs="http://svgjs.com/svgjs" width="15" height="15" viewBox="0 0 15 15"><title>Fill 1</title><desc>Created with Avocode.</desc><defs id="SvgjsDefs1016"></defs><path id="SvgjsPath1017" d="M332.95 223.85C332.5 223.85 332.15 223.5 332.15 223.04999999999998V211.95C332.15 211.5 332.5 211.14999999999998 332.95 211.14999999999998H344.05C344.5 211.14999999999998 344.85 211.49999999999997 344.85 211.95V223.04999999999998C344.85 223.49999999999997 344.5 223.85 344.05 223.85ZM332.95 210C331.87 210 331 210.87 331 211.95V223.04999999999998C331 224.13 331.87 224.99999999999997 332.95 224.99999999999997H344.05C345.13 224.99999999999997 346 224.12999999999997 346 223.04999999999998V211.95C346 210.86999999999998 345.13 210 344.05 210Z " fill="#666666" fill-opacity="1" transform="matrix(1,0,0,1,-331,-210)"></path><path id="SvgjsPath1018" d="M345.03 213.66H331.16999999999996C331.08 213.66 330.99999999999994 213.51 330.99999999999994 213.32999999999998C330.99999999999994 213.14999999999998 331.0799999999999 212.99999999999997 331.16999999999996 212.99999999999997H345.03C345.11999999999995 212.99999999999997 345.2 213.14999999999998 345.2 213.32999999999998C345.2 213.51 345.12 213.66 345.03 213.66 " fill="#666666" fill-opacity="1" transform="matrix(1,0,0,1,-331,-210)"></path><path id="SvgjsPath1019" d="M334.16 220.63C334.84000000000003 220.16 335.37 219.75 335.75 219.42C336.12 219.08999999999997 336.4 218.79 336.56 218.51C336.72 218.23999999999998 336.81 217.95999999999998 336.81 217.66C336.81 217.39 336.72 217.16 336.54 216.99C336.37 216.82000000000002 336.13 216.73000000000002 335.83000000000004 216.73000000000002C335.50000000000006 216.73000000000002 335.25000000000006 216.84000000000003 335.05000000000007 217.05C334.86000000000007 217.27 334.76000000000005 217.56 334.7300000000001 217.94L334.00000000000006 217.60999999999999C334.05000000000007 217.10999999999999 334.24000000000007 216.72 334.57000000000005 216.42999999999998C334.90000000000003 216.14 335.34000000000003 215.99999999999997 335.87000000000006 215.99999999999997C336.25000000000006 215.99999999999997 336.57000000000005 216.06999999999996 336.8400000000001 216.21999999999997C337.11000000000007 216.35999999999996 337.3200000000001 216.54999999999998 337.4600000000001 216.79999999999998C337.6000000000001 217.04999999999998 337.6700000000001 217.32 337.6700000000001 217.63C337.6700000000001 218.13 337.49000000000007 218.6 337.12000000000006 219.04999999999998C336.75000000000006 219.49999999999997 336.14000000000004 219.99999999999997 335.2800000000001 220.54999999999998V220.55999999999997C335.5400000000001 220.53999999999996 335.8200000000001 220.52999999999997 336.1300000000001 220.52999999999997H337.7600000000001V221.24999999999997H334.1600000000001Z " fill="#666666" fill-opacity="1" transform="matrix(1,0,0,1,-331,-210)"></path><path id="SvgjsPath1020" d="M339.84 219.23H341.54999999999995V217.45999999999998L341.5799999999999 216.61999999999998H341.55999999999995C341.43999999999994 216.89 341.2699999999999 217.17 341.05999999999995 217.48ZM343.22 219.88H342.34000000000003V221.17H341.55V219.88H339V219.37L341.31 216H342.34V219.23H343.21999999999997Z " fill="#666666" fill-opacity="1" transform="matrix(1,0,0,1,-331,-210)"></path></svg>