<svg id="SvgjsSvg1000" xmlns="http://www.w3.org/2000/svg" version="1.1" xmlns:xlink="http://www.w3.org/1999/xlink" xmlns:svgjs="http://svgjs.com/svgjs" width="20" height="15" viewBox="0 0 20 15"><title>Fill 1</title><desc>Created with Avocode.</desc><defs id="SvgjsDefs1001"></defs><path id="SvgjsPath1007" d="M469.96 220.55C469.85999999999996 220.52 469.73999999999995 220.52 469.64 220.56L466.87 221.67000000000002C466.69 221.75000000000003 466.54 221.66000000000003 466.49 221.62C466.44 221.57 466.32 221.45000000000002 466.35 221.25L466.77000000000004 218.4C466.79 218.28 466.76000000000005 218.17000000000002 466.70000000000005 218.07C466.19000000000005 217.26999999999998 465.9200000000001 216.37 465.9200000000001 215.45999999999998C465.9200000000001 212.42 468.8400000000001 209.95 472.43000000000006 209.95C476.02000000000004 209.95 478.94000000000005 212.42 478.94000000000005 215.45999999999998C478.94000000000005 218.49999999999997 476.02000000000004 220.96999999999997 472.43000000000006 220.96999999999997C471.58000000000004 220.96999999999997 470.75000000000006 220.82999999999998 469.96000000000004 220.54999999999998ZM465 215.46C465 216.49 465.29 217.51000000000002 465.83 218.43C465.83 218.43 465.83 218.43 465.83 218.44L465.45 221.05C465.38 221.54000000000002 465.53999999999996 222.04000000000002 465.90999999999997 222.35000000000002C466.15 222.55 466.43999999999994 222.65000000000003 466.72999999999996 222.65000000000003C466.89 222.65000000000003 467.04999999999995 222.62000000000003 467.21 222.55000000000004L469.82 221.51000000000005C469.82 221.50000000000006 469.83 221.50000000000006 469.83 221.51000000000005C470.65999999999997 221.78000000000006 471.53999999999996 221.91000000000005 472.43 221.91000000000005C476.53000000000003 221.91000000000005 479.86 219.02000000000007 479.86 215.46000000000006C479.86 211.90000000000006 476.53000000000003 209.00000000000006 472.43 209.00000000000006C468.33 209.00000000000006 465 211.90000000000006 465 215.46000000000006Z " fill="#666666" fill-opacity="1" transform="matrix(1,0,0,1,-465,-209)"></path><path id="SvgjsPath1008" d="M469.1 215C468.49 215 468 215.51 468 216.13C468 216.76 468.49 217.26 469.1 217.26C469.71000000000004 217.26 470.21000000000004 216.76 470.21000000000004 216.13C470.21000000000004 215.51 469.71000000000004 215 469.1 215 " fill="#666666" fill-opacity="1" transform="matrix(1,0,0,1,-465,-209)"></path><path id="SvgjsPath1009" d="M472.1 215C471.49 215 471 215.51 471 216.13C471 216.76 471.49 217.26 472.1 217.26C472.71000000000004 217.26 473.21000000000004 216.76 473.21000000000004 216.13C473.21000000000004 215.51 472.71000000000004 215 472.1 215 " fill="#666666" fill-opacity="1" transform="matrix(1,0,0,1,-465,-209)"></path><path id="SvgjsPath1010" d="M476.1 215C475.49 215 475 215.51 475 216.13C475 216.76 475.49 217.26 476.1 217.26C476.71000000000004 217.26 477.21000000000004 216.76 477.21000000000004 216.13C477.21000000000004 215.51 476.71000000000004 215 476.1 215 " fill="#666666" fill-opacity="1" transform="matrix(1,0,0,1,-465,-209)"></path><path id="SvgjsPath1011" d="M483.63 220.42C483.63 220.42 483.63 220.41 483.64 220.41C484.06 219.72 484.28999999999996 218.94 484.28999999999996 218.16C484.28999999999996 216.46 483.24999999999994 214.96 481.66999999999996 214.07999999999998C481.64 214.05999999999997 481.60999999999996 214.04 481.58 214.02999999999997C481.53 214.00999999999996 481.47999999999996 213.99999999999997 481.43 213.99999999999997C481.2 213.99999999999997 481.02 214.17999999999998 481.02 214.39999999999998C481.02 214.42999999999998 481.02 214.45999999999998 481.03 214.48C481.03 214.51 481.03999999999996 214.54999999999998 481.05999999999995 214.57999999999998C481.24999999999994 215.14999999999998 481.34999999999997 215.76 481.34999999999997 216.39C481.34999999999997 218.92 479.68999999999994 221.14 477.23999999999995 222.29C477.21999999999997 222.29999999999998 477.19999999999993 222.31 477.17999999999995 222.31C477.06999999999994 222.38 476.99999999999994 222.49 476.99999999999994 222.62C476.99999999999994 222.77 477.09999999999997 222.9 477.22999999999996 222.95000000000002C477.28 222.96 477.31999999999994 222.97000000000003 477.36999999999995 222.97000000000003C477.71999999999997 223.03000000000003 478.06999999999994 223.06000000000003 478.43999999999994 223.06000000000003C479.13999999999993 223.06000000000003 479.8299999999999 222.95000000000002 480.48999999999995 222.75000000000003V222.75000000000003L482.54999999999995 223.54000000000002C482.66999999999996 223.59000000000003 482.79999999999995 223.61 482.92999999999995 223.61C483.15999999999997 223.61 483.37999999999994 223.54000000000002 483.56999999999994 223.39000000000001C483.86999999999995 223.16000000000003 483.98999999999995 222.77 483.93999999999994 222.4Z " fill="#666666" fill-opacity="1" transform="matrix(1,0,0,1,-465,-209)"></path></svg>