<svg id="SvgjsSvg1012" xmlns="http://www.w3.org/2000/svg" version="1.1" xmlns:xlink="http://www.w3.org/1999/xlink" xmlns:svgjs="http://svgjs.com/svgjs" width="21" height="11" viewBox="0 0 21 11"><title>Fill 1</title><desc>Created with Avocode.</desc><defs id="SvgjsDefs1013"></defs><path id="SvgjsPath1014" d="M215.46 218.43C215.46 218.42000000000002 215.47 218.4 215.46 218.38L215.23000000000002 217.97C215.03000000000003 217.60999999999999 214.68 217.34 214.27 217.22L213.56 217.01C213.47 216.98 213.34 216.91 213.27 216.7C213.23000000000002 216.57999999999998 213.17000000000002 216.25 213.26000000000002 216.11999999999998L213.73000000000002 215.42C213.81000000000003 215.29 213.85000000000002 214.67999999999998 213.83 214.19C213.77 213.89 213.60000000000002 213.62 213.34 213.44C213.13 213.31 212.89000000000001 213.23 212.64000000000001 213.23C212.38000000000002 213.23 212.13000000000002 213.32 211.92000000000002 213.47C211.69000000000003 213.62 211.54000000000002 213.85999999999999 211.47000000000003 214.13C211.43000000000004 214.66 211.44000000000003 215.31 211.54000000000002 215.45L211.98000000000002 216.11999999999998C212.08 216.27999999999997 212.00000000000003 216.61999999999998 211.99 216.62999999999997C211.92000000000002 216.88999999999996 211.78 216.97999999999996 211.68 217.00999999999996L210.97 217.21999999999997C210.64 217.30999999999997 210.35 217.50999999999996 210.15 217.75999999999996C210.57 217.92999999999995 210.95000000000002 218.15999999999997 211.29 218.45999999999995H215.4C215.43 218.45999999999995 215.45000000000002 218.43999999999994 215.46 218.42999999999995ZM211.32 221.16C211.66 221.16 211.88 220.82 211.72 220.53L211.34 219.85C211.25 219.68 211.14000000000001 219.51999999999998 211.01 219.37C210.63 218.94 210.13 218.61 209.54999999999998 218.45000000000002L208.83999999999997 218.24L208.36999999999998 218.10000000000002C208.02999999999997 218.01000000000002 208.02999999999997 217.19000000000003 208.06999999999996 217.14000000000001L208.84999999999997 215.98000000000002C209.14999999999998 215.52 209.05999999999997 213.73000000000002 209.05999999999997 213.73000000000002C208.95999999999998 213.14000000000001 208.61999999999998 212.60000000000002 208.10999999999999 212.26000000000002C207.7 211.98000000000002 207.22 211.84000000000003 206.74999999999997 211.84000000000003C206.25999999999996 211.84000000000003 205.75999999999996 211.99000000000004 205.33999999999997 212.30000000000004C204.87999999999997 212.61000000000004 204.57999999999998 213.10000000000005 204.45999999999998 213.62000000000003C204.45999999999998 213.62000000000003 204.29 215.55000000000004 204.61999999999998 216.03000000000003L205.34999999999997 217.14000000000004C205.40999999999997 217.19000000000005 205.39999999999998 218.01000000000005 205.04999999999995 218.10000000000005L204.55999999999995 218.25000000000006L203.86999999999995 218.45000000000005C203.29999999999995 218.61000000000004 202.78999999999994 218.94000000000005 202.41999999999996 219.37000000000003C202.28999999999996 219.52000000000004 202.16999999999996 219.68000000000004 202.07999999999996 219.85000000000002L201.70999999999995 220.53000000000003C201.54999999999995 220.82000000000002 201.75999999999996 221.16000000000003 202.10999999999996 221.16000000000003ZM202.14 218.46C202.47 218.17000000000002 202.85 217.93 203.26999999999998 217.77C203.07 217.51000000000002 202.77999999999997 217.31 202.45 217.22L201.73999999999998 217.01C201.64999999999998 216.98 201.51999999999998 216.91 201.45 216.7C201.41 216.57999999999998 201.35 216.25 201.44 216.11999999999998L201.91 215.42C201.99 215.29 202.02 214.67999999999998 202 214.19C201.95 213.89 201.77 213.62 201.52 213.44C201.31 213.31 201.07000000000002 213.23 200.82000000000002 213.23C200.56000000000003 213.23 200.3 213.32 200.10000000000002 213.47C199.87000000000003 213.62 199.71000000000004 213.85999999999999 199.65000000000003 214.13C199.60000000000002 214.66 199.62000000000003 215.31 199.71000000000004 215.45L200.16000000000003 216.11999999999998C200.26000000000002 216.27999999999997 200.17000000000002 216.61999999999998 200.17000000000002 216.62999999999997C200.10000000000002 216.88999999999996 199.96 216.97999999999996 199.85000000000002 217.00999999999996L199.14000000000001 217.21999999999997C198.73000000000002 217.33999999999997 198.38000000000002 217.60999999999996 198.19000000000003 217.96999999999997L197.96000000000004 218.37999999999997C197.95000000000005 218.39999999999998 197.95000000000005 218.41999999999996 197.96000000000004 218.42999999999998C197.97000000000003 218.43999999999997 197.98000000000005 218.45999999999998 198.01000000000005 218.45999999999998ZM216.28 217.95C216.45 218.25 216.45 218.60999999999999 216.26 218.89999999999998C216.07999999999998 219.18999999999997 215.75 219.36999999999998 215.39999999999998 219.36999999999998H212.01999999999998C212.04 219.39999999999998 212.05999999999997 219.42999999999998 212.07999999999998 219.46999999999997L212.45 220.13999999999996C212.67999999999998 220.53999999999996 212.67 220.99999999999997 212.42 221.37999999999997C212.19 221.75999999999996 211.76 221.98999999999998 211.29999999999998 221.98999999999998H202.08999999999997C201.62999999999997 221.98999999999998 201.21999999999997 221.76999999999998 200.96999999999997 221.37999999999997C200.73999999999998 220.99999999999997 200.72999999999996 220.53999999999996 200.93999999999997 220.13999999999996L201.31999999999996 219.46999999999997C201.33999999999997 219.42999999999998 201.35999999999996 219.39999999999998 201.37999999999997 219.36999999999998H197.99999999999997C197.64999999999998 219.36999999999998 197.32999999999998 219.2 197.13999999999996 218.89999999999998C196.95999999999995 218.59999999999997 196.94999999999996 218.26 197.11999999999995 217.95L197.33999999999995 217.54C197.66999999999996 216.95 198.22999999999993 216.51999999999998 198.86999999999995 216.34L199.12999999999994 216.27L198.90999999999994 215.94C198.60999999999993 215.48 198.49999999999994 214.94 198.61999999999995 214.42L198.70999999999995 213.95999999999998C198.81999999999996 213.46999999999997 199.10999999999996 213.04 199.50999999999996 212.73999999999998C199.88999999999996 212.45999999999998 200.34999999999997 212.30999999999997 200.81999999999996 212.30999999999997C201.26999999999995 212.30999999999997 201.69999999999996 212.43999999999997 202.06999999999996 212.69999999999996C202.53999999999996 213.02999999999997 202.85999999999996 213.51999999999995 202.93999999999997 214.05999999999997L203.00999999999996 214.48999999999998C203.08999999999997 214.98999999999998 202.97999999999996 215.48999999999998 202.69999999999996 215.90999999999997L202.46999999999997 216.26999999999998L202.71999999999997 216.33999999999997C203.35999999999996 216.51999999999998 203.88999999999996 216.92999999999998 204.19999999999996 217.48999999999998L204.50999999999996 217.39999999999998L203.88999999999996 216.46999999999997C203.43999999999997 215.79999999999998 203.28999999999996 214.99999999999997 203.45999999999995 214.20999999999998L203.61999999999995 213.45C203.76999999999995 212.73999999999998 204.18999999999994 212.08999999999997 204.80999999999995 211.63C205.36999999999995 211.22 206.05999999999995 211 206.74999999999994 211C207.41999999999993 211 208.06999999999994 211.21 208.61999999999995 211.58C209.29999999999995 212.06 209.77999999999994 212.79000000000002 209.90999999999994 213.61L210.01999999999995 214.31C210.13999999999996 215.04 209.97999999999996 215.8 209.55999999999995 216.42000000000002L208.91999999999996 217.4L209.20999999999995 217.48000000000002C209.53999999999996 216.93 210.07999999999996 216.51000000000002 210.69999999999996 216.34000000000003L210.94999999999996 216.27000000000004L210.72999999999996 215.94000000000003C210.42999999999995 215.48000000000002 210.32999999999996 214.94000000000003 210.43999999999997 214.42000000000002L210.53999999999996 213.96C210.63999999999996 213.47 210.92999999999995 213.04000000000002 211.33999999999997 212.74C211.70999999999998 212.46 212.17 212.31 212.64 212.31C213.08999999999997 212.31 213.51999999999998 212.44 213.89999999999998 212.7C214.35999999999999 213.03 214.67999999999998 213.51999999999998 214.76999999999998 214.06L214.83999999999997 214.49C214.90999999999997 214.99 214.79999999999998 215.49 214.52999999999997 215.91L214.28999999999996 216.27L214.53999999999996 216.34C215.19999999999996 216.52 215.74999999999997 216.96 216.05999999999997 217.55Z " fill="#ffffff" fill-opacity="1" transform="matrix(1,0,0,1,-196,-211)"></path></svg>