<svg id="SvgjsSvg1025" xmlns="http://www.w3.org/2000/svg" version="1.1" xmlns:xlink="http://www.w3.org/1999/xlink" xmlns:svgjs="http://svgjs.com/svgjs" width="16" height="13" viewBox="0 0 16 13"><title>Fill 1</title><desc>Created with Avocode.</desc><defs id="SvgjsDefs1026"></defs><path id="SvgjsPath1027" d="M849.04 215.59H848C847.99 215.59 847.99 215.59 847.99 215.59V221.01C847.99 221.76999999999998 847.37 222.39 846.62 222.39H836.66C836.73 222.76999999999998 837.06 223.05999999999997 837.4499999999999 223.05999999999997H848.2299999999999C848.68 223.05999999999997 849.0399999999998 222.68999999999997 849.0399999999998 222.23999999999998ZM846.62 221.45C846.86 221.45 847.05 221.25 847.05 221.01V214.44H840.99C840.96 214.44 840.9300000000001 214.45 840.9 214.46C840.77 214.49 840.62 214.56 840.55 214.63L840.29 214.89C840.03 215.16 839.5699999999999 215.35 839.1899999999999 215.35H834.93V221.01C834.93 221.25 835.13 221.45 835.37 221.45ZM835.57 211.77C835.21 211.77 834.9200000000001 212.06 834.9200000000001 212.42000000000002C834.9200000000001 212.78000000000003 835.21 213.07000000000002 835.57 213.07000000000002H839.22C839.57 213.07000000000002 839.86 212.78000000000003 839.86 212.42000000000002C839.86 212.06 839.57 211.77 839.22 211.77ZM848.23 213.53C849.1800000000001 213.53 849.96 214.31 849.96 215.28V222.24C849.96 223.20000000000002 849.1800000000001 223.98000000000002 848.23 223.98000000000002H837.45C836.5500000000001 223.98000000000002 835.8100000000001 223.28000000000003 835.73 222.39000000000001H835.37C834.61 222.39000000000001 834 221.77 834 221.01000000000002V212.38000000000002C834 211.62000000000003 834.61 211.00000000000003 835.37 211.00000000000003H839.3C839.8199999999999 211.00000000000003 840.3499999999999 211.43000000000004 840.54 212.00000000000003C840.61 212.23000000000002 840.81 212.36000000000004 840.88 212.36000000000004H846.62C847.3 212.36000000000004 847.87 212.87000000000003 847.97 213.53000000000003Z " fill="#666666" fill-opacity="1" transform="matrix(1,0,0,1,-834,-211)"></path></svg>