<svg id="SvgjsSvg1021" xmlns="http://www.w3.org/2000/svg" version="1.1" xmlns:xlink="http://www.w3.org/1999/xlink" xmlns:svgjs="http://svgjs.com/svgjs" width="13" height="16" viewBox="0 0 13 16"><title>Fill 1</title><desc>Created with Avocode.</desc><defs id="SvgjsDefs1022"></defs><path id="SvgjsPath1023" d="M716.25 225.02C716.65 225.02 716.98 224.70000000000002 716.98 224.3V213.12C716.98 212.77 716.73 212.48000000000002 716.39 212.41V222.81C716.39 223.71 715.65 224.44 714.73 224.44H708.08C708.1500000000001 224.77 708.45 225.02 708.8000000000001 225.02ZM714.73 223.53C715.13 223.53 715.46 223.21 715.46 222.81V211.63C715.46 211.23 715.13 210.91 714.73 210.91H707.28C706.88 210.91 706.55 211.23 706.55 211.63V212.07999999999998H706.68C706.92 212.07999999999998 707.1099999999999 212.26 707.1099999999999 212.48999999999998C707.1099999999999 212.71999999999997 706.9199999999998 212.90999999999997 706.68 212.90999999999997H706.55V215.31999999999996H706.68C706.92 215.31999999999996 707.1099999999999 215.49999999999997 707.1099999999999 215.72999999999996C707.1099999999999 215.95999999999995 706.9199999999998 216.14999999999995 706.68 216.14999999999995H706.55V218.41999999999996H706.68C706.92 218.41999999999996 707.1099999999999 218.60999999999996 707.1099999999999 218.83999999999995C707.1099999999999 219.06999999999994 706.9199999999998 219.25999999999993 706.68 219.25999999999993H706.55V221.52999999999994H706.68C706.92 221.52999999999994 707.1099999999999 221.71999999999994 707.1099999999999 221.94999999999993C707.1099999999999 222.17999999999992 706.9199999999998 222.35999999999993 706.68 222.35999999999993H706.55V222.80999999999992C706.55 223.1999999999999 706.88 223.51999999999992 707.28 223.52999999999992ZM716.39 211.5C717.24 211.56 717.91 212.27 717.91 213.12V224.3C717.91 225.20000000000002 717.17 225.93 716.25 225.93H708.8C707.93 225.93 707.2199999999999 225.27 707.15 224.43C706.3 224.37 705.62 223.66 705.62 222.81V222.36H705.43C705.1899999999999 222.36 705 222.18 705 221.95000000000002C705 221.72000000000003 705.19 221.53000000000003 705.43 221.53000000000003H705.62V219.26000000000002H705.43C705.1899999999999 219.26000000000002 705 219.07000000000002 705 218.84000000000003C705 218.61000000000004 705.19 218.42000000000004 705.43 218.42000000000004H705.62V216.15000000000003H705.43C705.1899999999999 216.15000000000003 705 215.96000000000004 705 215.73000000000005C705 215.50000000000006 705.19 215.32000000000005 705.43 215.32000000000005H705.62V212.91000000000005H705.43C705.1899999999999 212.91000000000005 705 212.72000000000006 705 212.49000000000007C705 212.26000000000008 705.19 212.08000000000007 705.43 212.08000000000007H705.62V211.63000000000008C705.62 210.73000000000008 706.37 210.00000000000009 707.28 210.00000000000009H714.73C715.6 210.00000000000009 716.32 210.66000000000008 716.39 211.50000000000009Z " fill="#ffffff" fill-opacity="1" transform="matrix(1,0,0,1,-705,-210)"></path><path id="SvgjsPath1024" d="M712.69 214.13C712.69 214.95 712.0100000000001 215.62 711.1800000000001 215.62C710.34 215.62 709.6600000000001 214.95000000000002 709.6600000000001 214.13C709.6600000000001 213.32 710.34 212.65 711.1800000000001 212.65C712.0100000000001 212.65 712.69 213.32 712.69 214.13ZM713.35 214.13C713.35 212.96 712.37 212 711.1800000000001 212C709.98 212 709.0000000000001 212.96 709.0000000000001 214.13C709.0000000000001 215.31 709.9800000000001 216.26999999999998 711.1800000000001 216.26999999999998C712.3700000000001 216.26999999999998 713.35 215.30999999999997 713.35 214.13Z " fill="#ffffff" fill-opacity="1" transform="matrix(1,0,0,1,-705,-210)"></path></svg>