<svg id="SvgjsSvg1028" xmlns="http://www.w3.org/2000/svg" version="1.1" xmlns:xlink="http://www.w3.org/1999/xlink" xmlns:svgjs="http://svgjs.com/svgjs" width="16" height="12" viewBox="0 0 16 12"><title>Fill 1</title><desc>Created with Avocode.</desc><defs id="SvgjsDefs1029"></defs><path id="SvgjsPath1030" d="M982.73 213.67C983.19 213.67 983.57 213.29 983.57 212.83999999999997C983.57 212.36999999999998 983.21 211.99999999999997 982.7700000000001 211.99999999999997H972.83C972.38 211.99999999999997 972 212.37999999999997 972 212.83999999999997C972 213.28999999999996 972.38 213.67 972.83 213.67Z " fill="#ffffff" fill-opacity="1" transform="matrix(1,0,0,1,-968,-211)"></path><path id="SvgjsPath1031" d="M972.48 221.67H983.09C983.35 221.67 983.57 221.29 983.57 220.83999999999997C983.57 220.36999999999998 983.36 219.99999999999997 983.11 219.99999999999997H972.48C972.22 219.99999999999997 972 220.37999999999997 972 220.83999999999997C972 221.28999999999996 972.22 221.67 972.48 221.67 " fill="#ffffff" fill-opacity="1" transform="matrix(1,0,0,1,-968,-211)"></path><path id="SvgjsPath1032" d="M982.73 217.67C983.19 217.67 983.57 217.29 983.57 216.83999999999997C983.57 216.36999999999998 983.21 215.99999999999997 982.7700000000001 215.99999999999997H972.83C972.38 215.99999999999997 972 216.37999999999997 972 216.83999999999997C972 217.28999999999996 972.38 217.67 972.83 217.67Z " fill="#ffffff" fill-opacity="1" transform="matrix(1,0,0,1,-968,-211)"></path><path id="SvgjsPath1033" d="M968 221.24C968 221.92000000000002 968.55 222.47 969.23 222.47C969.91 222.47 970.47 221.92 970.47 221.24C970.47 220.55 969.9100000000001 220 969.23 220C968.5500000000001 220 968 220.55 968 221.24 " fill="#ffffff" fill-opacity="1" transform="matrix(1,0,0,1,-968,-211)"></path><path id="SvgjsPath1034" d="M969.23 218.47C969.91 218.47 970.47 217.92 970.47 217.24C970.47 216.55 969.9100000000001 216 969.23 216C968.5500000000001 216 968 216.55 968 217.24C968 217.92000000000002 968.55 218.47 969.23 218.47Z " fill="#ffffff" fill-opacity="1" transform="matrix(1,0,0,1,-968,-211)"></path><path id="SvgjsPath1035" d="M968 212.24C968 212.92000000000002 968.55 213.47 969.23 213.47C969.91 213.47 970.47 212.92 970.47 212.24C970.47 211.55 969.9100000000001 211 969.23 211C968.5500000000001 211 968 211.55 968 212.24 " fill="#ffffff" fill-opacity="1" transform="matrix(1,0,0,1,-968,-211)"></path></svg>